<svg width="19" height="19" viewBox="0 0 19 19" fill="none" xmlns="http://www.w3.org/2000/svg">
<path d="M9.24573 15.1432C8.22543 15.1432 7.2274 14.8447 6.37454 14.2847C5.52169 13.7246 4.85122 12.9275 4.44571 11.9912L0.969727 13.5001C1.55983 14.8631 2.47773 16.0592 3.64175 16.9817C4.80578 17.9042 6.17983 18.5247 7.6416 18.7878C9.10337 19.051 10.6075 18.9487 12.0202 18.4901C13.4329 18.0315 14.7103 17.2308 15.7387 16.1592L13.0087 13.5322C12.5228 14.0409 11.9388 14.4458 11.2921 14.7227C10.6453 14.9995 9.94923 15.1426 9.24573 15.1432Z" fill="#3DA758"/>
<path d="M9.2457 4.67541C9.94948 4.67546 10.646 4.81813 11.2931 5.09485C11.9402 5.37156 12.5245 5.77657 13.0107 6.2854L15.7407 3.65844C14.7121 2.5871 13.4346 1.78653 12.0219 1.32812C10.6092 0.869715 9.10512 0.76762 7.64343 1.03088C6.18175 1.29414 4.80778 1.91467 3.6438 2.83715C2.47981 3.75964 1.56187 4.95545 0.97168 6.31836L4.44769 7.82641C4.85321 6.89066 5.52343 6.09389 6.37589 5.53405C7.22834 4.97422 8.22585 4.67574 9.2457 4.67541Z" fill="#E5453D"/>
<path d="M4.0116 9.90942C4.01195 9.19248 4.16039 8.48332 4.4476 7.82642L0.971588 6.31836C0.478869 7.45144 0.224609 8.67385 0.224609 9.90942C0.224609 11.145 0.478869 12.3673 0.971588 13.5004L4.4476 11.9915C4.16036 11.3349 4.01191 10.6261 4.0116 9.90942Z" fill="#F9BB2C"/>
<path d="M18.2285 9.05762H9.18555V11.9097H14.0855C13.8329 12.512 13.4708 13.0623 13.0175 13.5327L15.7475 16.1597C17.3689 14.4832 18.2748 12.2419 18.2735 9.90967C18.2665 9.62167 18.2505 9.33862 18.2285 9.05762Z" fill="#4E88F0"/>
</svg>
