<svg width="308" height="284" viewBox="0 0 308 284" fill="none" xmlns="http://www.w3.org/2000/svg">
<path opacity="0.8" d="M154.037 175.515C202.459 175.515 241.712 136.261 241.712 87.8396C241.712 39.4177 202.459 0.164062 154.037 0.164062C105.615 0.164062 66.3613 39.4177 66.3613 87.8396C66.3613 136.261 105.615 175.515 154.037 175.515Z" fill="#F1971C"/>
<path opacity="0.8" d="M307.826 196.323C307.826 147.901 268.572 108.646 220.149 108.646C171.727 108.646 132.473 147.901 132.473 196.323C132.473 244.746 171.727 284 220.149 284C268.572 284 307.826 244.746 307.826 196.323Z" fill="#FBCA1D"/>
<path opacity="0.8" d="M175.514 196.293C175.514 147.872 136.262 108.62 87.8422 108.62C39.4221 108.62 0.169916 147.872 0.169918 196.293C0.16992 244.713 39.4221 283.965 87.8422 283.965C136.262 283.965 175.514 244.713 175.514 196.293Z" fill="#00A590"/>
<path opacity="0.3" d="M307.826 196.323C307.826 147.901 268.572 108.646 220.149 108.646C171.727 108.646 132.473 147.901 132.473 196.323C132.473 244.746 171.727 284 220.149 284C268.572 284 307.826 244.746 307.826 196.323Z" fill="#FBCA1D"/>
<path opacity="0.3" d="M175.514 196.293C175.514 147.872 136.262 108.62 87.8422 108.62C39.4221 108.62 0.169916 147.872 0.169918 196.293C0.16992 244.713 39.4221 283.965 87.8422 283.965C136.262 283.965 175.514 244.713 175.514 196.293Z" fill="#00A590"/>
<path opacity="0.3" d="M154.037 175.515C202.459 175.515 241.712 136.261 241.712 87.8396C241.712 39.4177 202.459 0.164062 154.037 0.164062C105.615 0.164062 66.3613 39.4177 66.3613 87.8396C66.3613 136.261 105.615 175.515 154.037 175.515Z" fill="#F1971C"/>
<path d="M293.94 283.545H28.6299C28.4313 283.545 28.332 283.446 28.332 283.247C28.332 283.049 28.4313 282.949 28.6299 282.949H293.94C294.139 282.949 294.238 283.049 294.238 283.247C294.337 283.446 294.139 283.545 293.94 283.545Z" fill="#1A2E35"/>
<path d="M155.526 283.942C155.328 283.942 155.229 283.843 155.229 283.644V0.461452C155.229 0.262866 155.328 0.163574 155.526 0.163574C155.725 0.163574 155.824 0.262866 155.824 0.461452V283.545C155.824 283.744 155.725 283.942 155.526 283.942Z" fill="#1A2E35"/>
<path d="M144.402 33.923H128.118C127.919 33.923 127.82 33.8237 127.82 33.6251V27.0718C127.82 26.8732 127.919 26.7739 128.118 26.7739H144.402C144.6 26.7739 144.7 26.8732 144.7 27.0718V33.6251C144.7 33.8237 144.6 33.923 144.402 33.923ZM128.416 33.3272H144.005V27.469H128.416V33.3272Z" fill="#1A2E35"/>
<path d="M131.397 41.4699H115.113C114.914 41.4699 114.815 41.3706 114.815 41.172V34.6187C114.815 34.4201 114.914 34.3208 115.113 34.3208H131.397C131.596 34.3208 131.695 34.4201 131.695 34.6187V41.172C131.695 41.2713 131.596 41.4699 131.397 41.4699ZM115.411 40.7748H131V34.9166H115.411V40.7748Z" fill="#1A2E35"/>
<path d="M93.9625 83.7682H77.6785C77.4799 83.7682 77.3806 83.6689 77.3806 83.4703V76.917C77.3806 76.7184 77.4799 76.6191 77.6785 76.6191H93.9625C94.1611 76.6191 94.2604 76.7184 94.2604 76.917V83.4703C94.3597 83.6689 94.1611 83.7682 93.9625 83.7682ZM78.0757 83.1725H93.6646V77.3142H78.0757V83.1725Z" fill="#1A2E35"/>
<path d="M102.106 92.4069H85.8218C85.6232 92.4069 85.5239 92.3076 85.5239 92.109V85.5557C85.5239 85.3571 85.6232 85.2578 85.8218 85.2578H102.106C102.304 85.2578 102.404 85.3571 102.404 85.5557V92.109C102.503 92.3076 102.304 92.4069 102.106 92.4069ZM86.219 91.8111H101.808V85.9529H86.219V91.8111Z" fill="#1A2E35"/>
<path d="M152.546 145.231H136.262C136.063 145.231 135.964 145.132 135.964 144.933V138.38C135.964 138.181 136.063 138.082 136.262 138.082H152.546C152.745 138.082 152.844 138.181 152.844 138.38V144.933C152.844 145.033 152.745 145.231 152.546 145.231ZM136.56 144.536H152.149V138.678H136.56V144.536Z" fill="#1A2E35"/>
<path d="M143.608 153.372H127.324C127.126 153.372 127.027 153.272 127.027 153.074V146.521C127.027 146.322 127.126 146.223 127.324 146.223H143.608C143.807 146.223 143.906 146.322 143.906 146.521V153.074C143.906 153.173 143.807 153.372 143.608 153.372ZM127.722 152.677H143.311V146.818H127.722V152.677Z" fill="#1A2E35"/>
<path d="M48.786 161.118H32.502C32.3034 161.118 32.2041 161.019 32.2041 160.82V154.267C32.2041 154.068 32.3034 153.969 32.502 153.969H48.786C48.9846 153.969 49.0839 154.068 49.0839 154.267V160.82C49.1832 160.919 48.9846 161.118 48.786 161.118ZM32.8991 160.423H48.4881V154.565H32.8991V160.423Z" fill="#1A2E35"/>
<path d="M57.4225 169.854H41.1385C40.9399 169.854 40.8406 169.755 40.8406 169.556V162.904C40.8406 162.705 40.9399 162.606 41.1385 162.606H57.4225C57.621 162.606 57.7203 162.705 57.7203 162.904V169.457C57.7203 169.656 57.621 169.854 57.4225 169.854ZM41.4363 169.159H57.0253V163.301H41.4363V169.159Z" fill="#1A2E35"/>
<path d="M147.382 204.011H131.098C130.9 204.011 130.8 203.912 130.8 203.714V197.16C130.8 196.962 130.9 196.862 131.098 196.862H147.382C147.581 196.862 147.68 196.962 147.68 197.16V203.714C147.68 203.813 147.581 204.011 147.382 204.011ZM131.495 203.316H147.084V197.458H131.495V203.316Z" fill="#1A2E35"/>
<path d="M134.278 145.231H117.994C117.795 145.231 117.696 145.132 117.696 144.933V138.38C117.696 138.181 117.795 138.082 117.994 138.082H134.278C134.476 138.082 134.576 138.181 134.576 138.38V144.933C134.675 145.033 134.476 145.231 134.278 145.231ZM118.391 144.536H133.98V138.678H118.391V144.536Z" fill="#1A2E35"/>
<path d="M80.8566 119.812C72.9132 119.812 64.8705 119.812 56.927 119.712C56.7284 119.712 56.6292 119.514 56.6292 119.415C56.6292 119.216 56.7284 119.117 56.927 119.117C72.7146 119.315 89.0979 119.315 104.389 119.117C104.588 119.117 104.687 119.216 104.687 119.415C104.687 119.613 104.588 119.712 104.389 119.712C96.7434 119.812 88.8 119.812 80.8566 119.812Z" fill="#1A2E35"/>
<path d="M54.4456 119.711H50.4739C50.2753 119.711 50.176 119.612 50.176 119.414C50.176 119.215 50.2753 119.116 50.4739 119.116H54.4456C54.6442 119.116 54.7435 119.215 54.7435 119.414C54.7435 119.513 54.5449 119.711 54.4456 119.711Z" fill="#1A2E35"/>
<path d="M155.523 61.0303H152.346C152.147 61.0303 152.048 60.931 152.048 60.7324C152.048 60.5339 152.147 60.4346 152.346 60.4346H155.523C155.722 60.4346 155.821 60.5339 155.821 60.7324C155.821 60.931 155.722 61.0303 155.523 61.0303Z" fill="#1A2E35"/>
<path d="M150.162 61.0295L141.027 60.9302C140.829 60.9302 140.729 60.8309 140.729 60.6324C140.729 60.4338 140.829 60.3345 141.027 60.3345L150.063 60.4338C150.261 60.4338 150.361 60.5331 150.361 60.7316C150.559 60.9302 150.361 61.0295 150.162 61.0295Z" fill="#1A2E35"/>
<path d="M131.892 187.131H129.608C129.409 187.131 129.31 187.032 129.31 186.834C129.31 186.635 129.409 186.536 129.608 186.536H131.892C132.09 186.536 132.19 186.635 132.19 186.834C132.19 187.032 131.991 187.131 131.892 187.131Z" fill="#1A2E35"/>
<path d="M155.525 187.131H134.375C134.177 187.131 134.077 187.032 134.077 186.834C134.077 186.635 134.177 186.536 134.375 186.536H155.525C155.723 186.536 155.823 186.635 155.823 186.834C155.823 187.032 155.723 187.131 155.525 187.131Z" fill="#1A2E35"/>
<path d="M179.753 283.446H108.064L103.794 215.728H175.583L179.753 283.446Z" fill="#BFBFBF"/>
<path d="M180.15 283.843H107.766L103.496 215.431H175.881L180.15 283.843ZM108.361 283.148H179.455L175.285 216.026H104.191L108.361 283.148Z" fill="#1A2E35"/>
<path d="M182.434 283.445H110.645L106.376 215.728H178.164L182.434 283.445Z" fill="white"/>
<path d="M182.434 283.842H110.745C110.546 283.842 110.447 283.743 110.447 283.544L106.177 215.827C106.177 215.727 106.177 215.628 106.277 215.628C106.376 215.529 106.376 215.529 106.475 215.529H178.264C178.463 215.529 178.562 215.628 178.562 215.827L182.831 283.544C182.831 283.644 182.832 283.743 182.732 283.743C182.534 283.743 182.434 283.842 182.434 283.842ZM110.944 283.147H182.037L177.867 216.025H106.773L110.944 283.147Z" fill="#1A2E35"/>
<path d="M114.22 231.216C114.22 231.216 119.085 222.677 127.823 223.472C136.561 224.266 138.05 232.408 142.518 229.231C146.887 226.053 159.597 224.365 164.462 224.266C169.327 224.167 169.327 224.663 170.618 229.231C171.909 233.798 167.54 239.756 170.618 243.33C173.696 246.905 176.576 252.962 170.817 259.018C165.157 265.075 165.157 273.912 159.497 274.607C153.838 275.302 142.717 267.558 136.759 271.033C130.802 274.508 119.482 279.671 120.475 274.607C121.468 269.643 123.355 259.515 118.39 256.04C113.624 252.564 110.943 235.089 114.22 231.216Z" fill="#1A2E35"/>
<g opacity="0.8">
<path opacity="0.8" d="M114.22 231.216C114.22 231.216 119.085 222.677 127.823 223.472C136.561 224.266 138.05 232.408 142.518 229.231C146.887 226.053 159.597 224.365 164.462 224.266C169.327 224.167 169.327 224.663 170.618 229.231C171.909 233.798 167.54 239.756 170.618 243.33C173.696 246.905 176.576 252.962 170.817 259.018C165.157 265.075 165.157 273.912 159.497 274.607C153.838 275.302 142.717 267.558 136.759 271.033C130.802 274.508 119.482 279.671 120.475 274.607C121.468 269.643 123.355 259.515 118.39 256.04C113.624 252.564 110.943 235.089 114.22 231.216Z" fill="white"/>
</g>
<g opacity="0.4">
<path opacity="0.4" d="M148.775 238.664C142.619 234.295 143.711 242.04 139.243 244.125C134.775 246.21 131.796 246.607 129.016 248.097C126.235 249.586 129.909 256.239 132.094 261.203C134.278 266.168 130.505 270.735 135.668 272.92C140.831 275.104 148.08 273.317 152.151 271.033C156.123 268.75 162.676 266.764 161.683 259.019C160.69 251.274 152.548 245.118 152.945 241.941C153.243 238.862 150.562 239.855 148.775 238.664Z" fill="white"/>
</g>
<g opacity="0.4">
<path opacity="0.4" d="M170.421 234.493C164.364 230.521 166.846 236.181 163.271 237.372C159.697 238.465 152.051 237.273 156.817 242.337C161.683 247.302 163.47 250.777 162.874 252.266C162.179 253.855 165.158 255.742 165.456 258.323C165.754 260.905 162.576 264.479 167.144 264.479C171.811 264.479 173.201 263.387 172.109 255.543C171.116 247.6 173.697 247.5 173.3 243.826C173.002 240.252 173.399 236.479 170.421 234.493Z" fill="white"/>
</g>
<g opacity="0.4">
<path opacity="0.4" d="M132.987 240.252C136.264 240.847 138.746 237.67 141.03 235.287C143.314 232.904 146.392 233.599 149.867 235.287C153.342 236.975 157.115 235.287 157.711 233.202C158.307 231.017 159.2 227.046 155.427 224.365C151.654 221.684 147.881 219.499 144.108 220.294C140.335 221.187 141.328 231.315 134.477 228.039C127.427 224.762 125.342 238.861 132.987 240.252Z" fill="white"/>
</g>
<g opacity="0.4">
<path opacity="0.4" d="M111.043 244.522C110.845 239.16 111.937 232.11 117.597 231.614C123.256 231.117 122.958 240.054 126.93 240.947C130.902 241.742 130.703 246.11 126.235 246.607C121.767 247.103 123.356 253.458 126.235 256.04C129.115 258.621 124.944 269.047 120.377 266.863C115.909 264.777 111.639 260.309 111.043 244.522Z" fill="white"/>
</g>
<g opacity="0.4">
<path opacity="0.4" d="M122.263 240.947C119.284 235.287 123.653 230.323 129.71 233.103C135.866 235.883 139.341 233.699 140.93 232.209C142.518 230.72 150.859 240.153 142.419 246.607C133.88 252.961 143.611 259.713 135.667 262.99C127.724 266.267 123.951 266.565 121.865 256.933C119.681 247.302 126.234 248.295 122.263 240.947Z" fill="white"/>
</g>
<g opacity="0.4">
<path opacity="0.4" d="M150.761 258.225C147.485 250.083 156.024 243.431 162.776 247.7C169.528 251.97 161.187 254.551 166.35 258.92C171.513 263.289 175.088 265.672 168.237 272.821C161.386 280.07 148.974 281.261 144.903 275.204C140.832 269.247 153.343 264.779 150.761 258.225Z" fill="white"/>
</g>
<g opacity="0.4">
<path opacity="0.4" d="M116.008 269.941C115.313 263.387 116.505 256.04 126.235 256.04C136.065 256.04 143.91 258.82 142.519 266.862C141.03 274.905 146.59 277.189 135.768 279.175C124.845 281.161 117.398 283.246 116.008 269.941Z" fill="white"/>
</g>
<g opacity="0.4">
<path opacity="0.4" d="M116.802 225.259C116.802 225.259 122.362 221.883 126.135 225.259C129.908 228.635 133.284 235.486 139.341 233.103C145.398 230.72 147.781 227.94 156.618 227.344C165.356 226.649 162.774 223.075 166.746 226.153C170.718 229.231 164.859 234.99 168.335 239.458C171.81 243.926 175.782 239.756 173.498 230.124C171.214 220.493 168.632 220.394 162.675 220.096C156.618 219.798 143.611 230.323 139.937 225.656C136.362 220.989 128.22 218.507 121.369 220.096C114.518 221.585 112.532 225.755 116.802 225.259Z" fill="white"/>
</g>
<g opacity="0.2">
<path opacity="0.2" d="M135.669 283.445H108.065L103.796 215.728H113.129L135.669 283.445Z" fill="black"/>
</g>
<path d="M45.3092 283.446H116.999L105.083 176.806H33.394L45.3092 283.446Z" fill="#BFBFBF"/>
<path d="M117.397 283.744H45.0125L32.998 176.408H105.382L117.397 283.744ZM45.6082 283.049H116.702L104.886 177.103H33.7924L45.6082 283.049Z" fill="#1A2E35"/>
<path d="M38.7558 201.727L47.8907 283.445H119.679L107.665 176.805H35.9756L36.8692 184.947" fill="white"/>
<path d="M119.681 283.744H47.892C47.6934 283.744 47.5942 283.644 47.5942 283.446L38.4592 201.728C38.4592 201.529 38.5585 201.43 38.7571 201.331C38.9557 201.331 39.055 201.43 39.1543 201.628L48.2892 283.048H119.383L107.567 177.103H36.4734L37.367 184.947C37.367 185.146 37.2677 185.245 37.0691 185.344C36.8705 185.344 36.7713 185.245 36.672 185.047L35.7783 176.905C35.7783 176.805 35.7783 176.706 35.8776 176.607C35.9769 176.507 36.0762 176.507 36.0762 176.507H107.865C108.063 176.507 108.163 176.607 108.163 176.805L120.078 283.446C120.078 283.545 120.078 283.644 119.979 283.744C119.78 283.744 119.681 283.744 119.681 283.744Z" fill="#1A2E35"/>
<path d="M38.2607 197.458C38.0621 197.458 37.9628 197.359 37.9628 197.16L37.5657 193.189C37.5657 192.99 37.665 192.891 37.8636 192.792C38.0621 192.792 38.1614 192.891 38.2607 193.089L38.6579 197.061C38.5586 197.26 38.4593 197.458 38.2607 197.458Z" fill="#1A2E35"/>
<path d="M49.4801 202.82C51.6646 196.366 57.5228 196.366 62.8846 190.309C68.3457 184.252 66.4592 181.373 76.587 185.543C86.6156 189.713 85.6227 192.196 90.3887 197.16C95.1548 202.125 101.41 201.728 98.9279 207.983C96.4456 214.239 102.304 221.189 104.985 225.558C107.566 229.927 107.07 237.473 104.985 242.041C102.9 246.708 111.935 254.949 104.985 262.396C98.0343 269.843 86.1192 269.942 78.5729 270.836C70.9274 271.729 64.4733 269.644 60.8988 263.488C57.3242 257.332 49.5794 268.155 53.154 254.154C56.7285 240.253 58.0193 227.445 53.6504 222.083C49.1822 216.721 47.8914 207.487 49.4801 202.82Z" fill="#FD9106"/>
<g opacity="0.6">
<path opacity="0.6" d="M49.4801 202.82C51.6646 196.366 57.5228 196.366 62.8846 190.309C68.3457 184.252 66.4592 181.373 76.587 185.543C86.6156 189.713 85.6227 192.196 90.3887 197.16C95.1548 202.125 101.41 201.728 98.9279 207.983C96.4456 214.239 102.304 221.189 104.985 225.558C107.566 229.927 107.07 237.473 104.985 242.041C102.9 246.708 111.935 254.949 104.985 262.396C98.0343 269.843 86.1192 269.942 78.5729 270.836C70.9274 271.729 64.4733 269.644 60.8988 263.488C57.3242 257.332 49.5794 268.155 53.154 254.154C56.7285 240.253 58.0193 227.445 53.6504 222.083C49.1822 216.721 47.8914 207.487 49.4801 202.82Z" fill="white"/>
</g>
<g opacity="0.6">
<path opacity="0.6" d="M88.8016 182.564L50.3752 230.126L51.8646 232.509L96.4471 186.04L88.8016 182.564Z" fill="white"/>
</g>
<g opacity="0.6">
<path opacity="0.6" d="M97.6384 195.175L75.1982 223.374L81.1558 233.204L92.8724 220.296L95.3547 223.871L76.7869 245.219L82.6452 253.46L102.305 226.254L96.4469 217.02L102.305 201.034L97.6384 195.175Z" fill="white"/>
</g>
<g opacity="0.2">
<path opacity="0.2" d="M88.3035 213.941C87.0127 212.055 85.2255 210.466 83.1403 209.473C81.2537 208.579 79.0693 208.083 77.4806 206.693C75.2962 204.707 74.899 201.43 75.2962 198.551C75.5941 196.863 75.9912 195.076 75.6933 193.388C75.3955 191.7 73.8068 190.012 72.1188 190.409C71.5231 190.508 70.9273 190.905 70.4308 191.302C69.0407 192.494 68.0478 193.983 67.0549 195.572C63.9768 200.537 59.6079 204.508 56.232 209.473C54.544 211.856 52.9553 214.438 51.7638 217.119C48.9836 223.473 48.4871 230.821 50.3737 237.374C52.4588 235.786 55.0405 234.892 57.7214 235.091C58.1185 235.091 58.615 235.19 58.9129 235.488C59.1115 235.686 59.2108 236.083 59.2108 236.381C59.3101 237.97 58.7143 239.459 58.3171 241.048C57.9199 242.736 57.8207 244.424 58.1185 246.112C58.3171 247.105 58.615 248.098 59.2108 248.892C60.2037 250.084 61.8917 250.481 63.3811 250.282C64.8704 250.084 66.2605 249.389 67.6506 248.594C68.7429 247.899 69.9344 247.204 70.5301 246.013C71.0266 245.02 71.0266 243.928 71.2252 242.736C71.7216 238.665 73.9061 234.991 76.587 231.913C79.2679 228.835 82.6439 226.353 85.8212 223.87C87.4099 222.679 89.0979 221.289 89.4951 219.303C90.0908 217.416 89.2965 215.53 88.3035 213.941Z" fill="white"/>
</g>
<g opacity="0.2">
<path opacity="0.2" d="M52.9551 243.629L69.537 229.232L74.2037 255.544L63.5794 266.963L60.2035 262.594L66.161 252.466L63.4801 250.183L57.7211 255.544L52.9551 243.629Z" fill="white"/>
</g>
<g opacity="0.2">
<path opacity="0.2" d="M98.2846 270.709C103.519 265.475 103.519 256.987 98.2846 251.753C93.0499 246.518 84.5627 246.518 79.3279 251.753C74.0932 256.987 74.0932 265.475 79.3279 270.709C84.5627 275.944 93.0499 275.944 98.2846 270.709Z" fill="white"/>
</g>
<g opacity="0.2">
<path opacity="0.2" d="M91.0841 255.545L74.2043 276.496L76.786 279.177L93.8643 258.127L91.0841 255.545Z" fill="white"/>
</g>
<g opacity="0.2">
<path opacity="0.2" d="M108.956 246.608L92.8708 273.318L111.141 276.694L108.956 246.608Z" fill="white"/>
</g>
<g opacity="0.2">
<path opacity="0.2" d="M48.885 183.557L72.0202 181.373L54.8426 203.615L48.885 183.557Z" fill="white"/>
</g>
<path d="M232.579 122.396L259.785 283.448H265.147L237.841 122.396H232.579Z" fill="#757575"/>
<path d="M265.146 283.746H259.784C259.585 283.746 259.486 283.647 259.486 283.448L232.18 122.395C232.18 122.296 232.18 122.197 232.28 122.097C232.379 121.998 232.478 121.998 232.578 121.998H237.939C238.138 121.998 238.237 122.097 238.237 122.296L265.543 283.349C265.543 283.448 265.543 283.547 265.443 283.647C265.344 283.746 265.245 283.746 265.146 283.746ZM260.082 283.051H264.748L237.542 122.693H232.875L260.082 283.051Z" fill="#1A2E35"/>
<path d="M262.466 283.447H259.785L232.579 122.394H235.26L262.466 283.447Z" fill="#999999"/>
<path d="M262.465 283.745H259.784C259.585 283.745 259.486 283.646 259.486 283.447L232.18 122.494C232.18 122.395 232.18 122.295 232.28 122.196C232.379 122.097 232.478 122.097 232.578 122.097H235.259C235.457 122.097 235.556 122.196 235.556 122.395L262.862 283.447C262.862 283.547 262.862 283.646 262.763 283.745C262.663 283.745 262.564 283.745 262.465 283.745ZM260.082 283.05H262.068L234.861 122.692H232.875L260.082 283.05Z" fill="#1A2E35"/>
<path d="M245.587 60.9316H240.225L224.339 283.248H229.7L245.587 60.9316Z" fill="#757575"/>
<path d="M229.7 283.546H224.338C224.239 283.546 224.139 283.546 224.139 283.447C224.04 283.347 224.04 283.248 224.04 283.248L239.927 60.9317C239.927 60.7331 240.125 60.6338 240.225 60.6338H245.587C245.686 60.6338 245.785 60.6338 245.785 60.7331C245.884 60.8324 245.884 60.9317 245.884 60.9317L229.998 283.248C229.998 283.447 229.898 283.546 229.7 283.546ZM224.735 282.95H229.402L245.289 61.3288H240.622L224.735 282.95Z" fill="#1A2E35"/>
<path d="M226.023 60.9331H220.661L183.029 283.448H188.292L226.023 60.9331Z" fill="#757575"/>
<path d="M188.293 283.745H182.931C182.832 283.745 182.732 283.745 182.633 283.646C182.534 283.546 182.534 283.447 182.534 283.348L220.166 60.8325C220.166 60.634 220.364 60.5347 220.464 60.5347H225.825C225.925 60.5347 226.024 60.5347 226.123 60.634C226.222 60.7333 226.223 60.8325 226.223 60.9318L188.591 283.447C188.591 283.646 188.491 283.745 188.293 283.745ZM183.427 283.05H188.094L225.627 61.2297H220.96L183.427 283.05Z" fill="#1A2E35"/>
<path d="M223.341 60.9331H220.66L183.028 283.448H185.709L223.341 60.9331Z" fill="#999999"/>
<path d="M185.711 283.745H183.03C182.93 283.745 182.831 283.745 182.732 283.646C182.633 283.546 182.633 283.447 182.633 283.348L220.265 60.8325C220.265 60.634 220.463 60.5347 220.562 60.5347H223.243C223.343 60.5347 223.442 60.5347 223.541 60.634C223.64 60.7333 223.64 60.8325 223.64 60.9318L186.009 283.447C185.909 283.646 185.81 283.745 185.711 283.745ZM183.427 283.05H185.413L222.945 61.2297H220.96L183.427 283.05Z" fill="#1A2E35"/>
<path d="M242.906 60.9316H240.225L224.339 283.248H227.02L242.906 60.9316Z" fill="#999999"/>
<path d="M227.019 283.546H224.338C224.239 283.546 224.139 283.546 224.139 283.447C224.04 283.347 224.04 283.248 224.04 283.248L239.927 60.9317C239.927 60.7331 240.125 60.6338 240.225 60.6338H242.906C243.005 60.6338 243.104 60.6338 243.104 60.7331C243.204 60.8324 243.204 60.9317 243.204 60.9317L227.317 283.248C227.317 283.447 227.217 283.546 227.019 283.546ZM224.735 282.95H226.721L242.608 61.3288H240.622L224.735 282.95Z" fill="#1A2E35"/>
<path d="M256.506 178.494H184.817L196.732 71.8535H268.421L256.506 178.494Z" fill="#BFBFBF"/>
<path d="M256.802 178.792H184.418L196.432 71.5557H268.817L256.802 178.792ZM185.113 178.196H256.206L268.022 72.2507H196.929L185.113 178.196Z" fill="#1A2E35"/>
<path d="M263.059 96.7765L253.924 178.494H182.234L194.15 71.854H265.839L264.945 80.0953" fill="white"/>
<path d="M253.924 178.792H182.136C182.036 178.792 181.937 178.792 181.937 178.693C181.838 178.593 181.838 178.494 181.838 178.395L193.753 71.7544C193.753 71.5558 193.952 71.4565 194.051 71.4565H265.84C265.939 71.4565 266.038 71.4565 266.038 71.5558C266.137 71.6551 266.137 71.7544 266.137 71.8537L265.244 79.9957C265.244 80.1943 265.045 80.2936 264.847 80.2936C264.648 80.2936 264.549 80.095 264.549 79.8964L265.442 72.0523H194.448L182.533 178.196H253.627L262.761 96.7762C262.761 96.5776 262.96 96.4783 263.159 96.4783C263.357 96.4783 263.457 96.6769 263.457 96.8755L254.322 178.593C254.222 178.693 254.123 178.792 253.924 178.792Z" fill="#1A2E35"/>
<path d="M263.556 92.5066C263.357 92.5066 263.258 92.308 263.258 92.1094L263.655 88.1377C263.655 87.9391 263.854 87.8398 264.052 87.8398C264.251 87.8398 264.35 88.0384 264.35 88.237L263.953 92.2087C263.854 92.4073 263.755 92.5066 263.556 92.5066Z" fill="#1A2E35"/>
<path d="M195.046 103.826C196.833 98.2658 201.599 93.6983 202.393 87.9393C203.088 82.081 204.081 78.9037 209.642 78.01C215.202 77.2157 219.273 86.9464 227.018 82.6768C234.763 78.3079 245.089 72.0525 248.962 81.4853C252.834 90.8188 252.834 93.8969 256.309 95.1877C259.884 96.4785 259.089 111.571 254.125 113.358C249.16 115.146 248.167 123.387 251.444 129.245C254.621 135.004 254.025 145.728 249.756 150.593C245.486 155.458 250.55 159.927 246.678 166.778C242.805 173.728 228.408 175.317 218.479 172.735C208.45 170.154 207.259 160.82 201.301 159.529C195.244 158.239 191.074 150.394 191.57 142.948C192.067 135.6 197.627 131.827 197.23 123.585C196.634 115.344 193.159 109.486 195.046 103.826Z" fill="#FD9106"/>
<g opacity="0.2">
<path opacity="0.2" d="M195.046 103.826C196.833 98.2658 201.599 93.6983 202.393 87.9393C203.088 82.081 204.081 78.9037 209.642 78.01C215.202 77.2157 219.273 86.9464 227.018 82.6768C234.763 78.3079 245.089 72.0525 248.962 81.4853C252.834 90.8188 252.834 93.8969 256.309 95.1877C259.884 96.4785 259.089 111.571 254.125 113.358C249.16 115.146 248.167 123.387 251.444 129.245C254.621 135.004 254.025 145.728 249.756 150.593C245.486 155.458 250.55 159.927 246.678 166.778C242.805 173.728 228.408 175.317 218.479 172.735C208.45 170.154 207.259 160.82 201.301 159.529C195.244 158.239 191.074 150.394 191.57 142.948C192.067 135.6 197.627 131.827 197.23 123.585C196.634 115.344 193.159 109.486 195.046 103.826Z" fill="white"/>
</g>
<path d="M255.018 89.4288C255.117 86.3507 252.039 84.2655 249.358 82.7761C248.961 82.5776 248.663 82.379 248.266 82.1804C247.67 81.8825 246.975 81.4853 246.38 81.2868C242.706 80.1945 239.429 83.5705 235.855 84.9606C231.486 86.6486 226.223 84.9606 223.542 81.0882C222.152 79.1023 220.762 76.3221 218.379 76.8186C216.294 77.315 215.5 80.3931 213.414 80.7903C211.528 81.1875 209.641 79.1023 207.755 79.6981C207.159 79.8966 206.662 80.3931 205.967 80.5917C204.577 81.0882 202.989 80.1945 201.698 80.9889C200.506 81.6839 200.606 83.3719 200.804 84.762C201.201 87.4429 201.599 89.3295 200.705 91.9111C199.712 94.8899 198.322 97.6701 199.414 100.847C199.811 102.138 200.606 103.429 200.208 104.72C200.01 105.316 199.613 105.812 199.414 106.309C198.62 108.096 199.712 110.082 200.01 112.068C200.407 114.252 199.911 116.536 199.414 118.819C199.116 120.11 198.818 121.401 198.024 122.493C197.428 123.387 196.535 123.983 195.74 124.777C193.854 126.862 193.357 129.94 194.449 132.522C195.74 135.6 199.116 137.685 199.414 140.962C199.613 142.948 198.52 144.933 197.031 146.324C195.641 147.714 193.854 148.707 192.166 149.799C191.471 150.295 190.676 150.891 190.279 151.685C189.286 154.168 192.662 156.451 192.464 159.132C192.364 160.622 191.173 161.912 191.371 163.303C191.57 164.891 193.159 165.785 194.648 166.381C199.017 168.069 204.081 168.764 208.45 166.976C211.826 165.686 215.003 163.005 218.478 163.7C221.457 164.295 223.741 167.274 226.819 167.274C230.195 167.175 232.379 163.501 235.557 162.707C234.564 161.813 234.862 159.927 235.954 159.132C237.046 158.338 238.535 158.239 239.926 158.437C241.415 158.636 243.103 159.132 244.294 158.239C245.883 156.948 245.089 154.466 244.493 152.579C243.103 148.011 244.096 142.749 247.075 138.976C247.968 137.884 249.16 136.593 248.763 135.103C248.564 134.408 247.968 133.813 247.77 133.118C247.075 130.834 250.153 129.146 250.649 126.763C250.947 125.373 250.252 123.983 249.557 122.692C248.365 120.507 247.174 118.422 245.982 116.238C244.791 114.053 243.599 111.472 244.592 109.188C246.181 105.613 252.139 105.316 253.131 101.542C253.628 99.6559 252.536 97.7693 252.734 95.8828C253.032 93.5991 254.919 91.7125 255.018 89.4288Z" fill="#FD9106"/>
<g opacity="0.2">
<path opacity="0.2" d="M218.281 122.691L221.756 145.727L244.494 136.791L239.728 115.145L218.281 122.691Z" fill="white"/>
</g>
<g opacity="0.6">
<path opacity="0.6" d="M226.818 126.664L250.053 141.16L224.733 157.544L226.818 126.664Z" fill="white"/>
</g>
<g opacity="0.4">
<path opacity="0.4" d="M219.949 132.314L216.178 132.17L214.844 167.196L218.614 167.339L219.949 132.314Z" fill="white"/>
</g>
<g opacity="0.2">
<path opacity="0.2" d="M252.688 92.5864C253.181 87.5105 249.465 82.996 244.389 82.5031C239.313 82.0101 234.799 85.7254 234.306 90.8014C233.813 95.8773 237.528 100.392 242.604 100.885C247.68 101.378 252.195 97.6624 252.688 92.5864Z" fill="white"/>
</g>
<g opacity="0.2">
<path opacity="0.2" d="M196.732 162.509L197.229 149.204L203.882 146.026L205.967 131.827L200.406 128.154L203.087 102.635L214.407 99.458L211.825 124.678L222.35 130.139L222.449 149.502L211.328 153.175L210.633 171.644L196.732 162.509Z" fill="white"/>
</g>
<g opacity="0.6">
<path opacity="0.6" d="M201.2 90.0238L224.931 92.2082L222.151 87.8394L201.2 90.0238Z" fill="white"/>
</g>
<g opacity="0.4">
<path opacity="0.4" d="M224.636 101.742L233.969 100.55L239.132 104.522L224.636 101.742Z" fill="white"/>
</g>
<g opacity="0.6">
<path opacity="0.6" d="M198.619 111.174L221.754 108.294L224.634 117.727L216.194 120.309L218.279 128.054L207.258 130.437L198.619 111.174Z" fill="white"/>
</g>
<path d="M233.172 121.897L260.477 282.95H265.839L238.534 121.897H233.172Z" fill="#757575"/>
<path d="M265.839 283.248H260.478C260.279 283.248 260.18 283.149 260.18 282.951L232.874 121.898C232.874 121.798 232.874 121.699 232.974 121.6C233.073 121.5 233.172 121.5 233.271 121.5H238.633C238.832 121.5 238.931 121.6 238.931 121.798L266.237 282.851C266.237 282.951 266.237 283.05 266.137 283.149C265.939 283.248 265.939 283.248 265.839 283.248ZM260.776 282.553H265.442L238.236 122.196H233.569L260.776 282.553Z" fill="#1A2E35"/>
<path d="M263.158 282.95H260.477L233.172 121.897H235.853L263.158 282.95Z" fill="#999999"/>
<path d="M263.159 283.248H260.478C260.279 283.248 260.18 283.149 260.18 282.951L232.874 121.898C232.874 121.798 232.874 121.699 232.974 121.6C233.073 121.5 233.172 121.5 233.271 121.5H235.952C236.151 121.5 236.25 121.6 236.25 121.798L263.556 282.851C263.556 282.951 263.556 283.05 263.456 283.149C263.357 283.248 263.258 283.248 263.159 283.248ZM260.776 282.553H262.761L235.555 122.196H233.569L260.776 282.553Z" fill="#1A2E35"/>
<path d="M246.179 60.4346H240.917L225.03 282.751H230.293L246.179 60.4346Z" fill="#757575"/>
<path d="M230.291 283.048H224.929C224.83 283.048 224.731 283.048 224.731 282.949C224.631 282.85 224.631 282.751 224.631 282.751L240.518 60.4341C240.518 60.2355 240.717 60.1362 240.816 60.1362H246.178C246.277 60.1362 246.376 60.1362 246.376 60.2355C246.476 60.3348 246.476 60.4341 246.476 60.4341L230.589 282.751C230.688 282.949 230.49 283.048 230.291 283.048ZM225.326 282.453H229.993L245.88 60.8313H241.213L225.326 282.453Z" fill="#1A2E35"/>
<path d="M226.619 60.4351H221.356L183.625 282.95H188.987L226.619 60.4351Z" fill="#757575"/>
<path d="M188.986 283.248H183.624C183.524 283.248 183.425 283.248 183.326 283.148C183.227 283.049 183.227 282.95 183.227 282.851L220.859 60.3355C220.859 60.1369 221.057 60.0376 221.156 60.0376H226.518C226.617 60.0376 226.717 60.0376 226.816 60.1369C226.915 60.2362 226.915 60.3355 226.915 60.4348L189.283 282.95C189.283 283.148 189.184 283.248 188.986 283.248ZM184.021 282.553H188.688L226.22 60.7326H221.554L184.021 282.553Z" fill="#1A2E35"/>
<path d="M224.037 60.4351H221.356L183.625 282.95H186.306L224.037 60.4351Z" fill="#999999"/>
<path d="M186.305 283.248H183.624C183.524 283.248 183.425 283.248 183.326 283.148C183.227 283.049 183.227 282.95 183.227 282.851L220.859 60.3355C220.859 60.1369 221.057 60.0376 221.156 60.0376H223.837C223.937 60.0376 224.036 60.0376 224.135 60.1369C224.234 60.2362 224.234 60.3355 224.234 60.4348L186.603 282.95C186.603 283.148 186.503 283.248 186.305 283.248ZM184.021 282.553H186.007L223.539 60.7326H221.554L184.021 282.553Z" fill="#1A2E35"/>
<path d="M243.599 60.4346H240.918L225.031 282.751H227.712L243.599 60.4346Z" fill="#999999"/>
<path d="M227.711 283.048H225.03C224.931 283.048 224.832 283.048 224.832 282.949C224.732 282.85 224.732 282.751 224.732 282.751L240.619 60.4341C240.619 60.2355 240.818 60.1362 240.917 60.1362H243.598C243.697 60.1362 243.797 60.1362 243.797 60.2355C243.896 60.3348 243.896 60.4341 243.896 60.4341L228.009 282.751C228.009 282.949 227.81 283.048 227.711 283.048ZM225.328 282.453H227.314L243.201 60.8313H241.215L225.328 282.453Z" fill="#1A2E35"/>
<path d="M257.202 177.998H185.414L197.428 71.3574H269.118L257.202 177.998Z" fill="#BFBFBF"/>
<path d="M257.499 178.295H185.115L197.129 70.96H269.513L257.499 178.295ZM185.81 177.7H256.903L268.719 71.7543H197.625L185.81 177.7Z" fill="#1A2E35"/>
<path d="M263.755 96.2799L254.62 177.998H182.832L194.747 71.3574H266.536L265.642 79.5987" fill="white"/>
<path d="M254.62 178.295H182.831C182.732 178.295 182.633 178.295 182.633 178.196C182.533 178.097 182.533 177.998 182.533 177.898L194.448 71.2578C194.448 71.0592 194.647 70.96 194.746 70.96H266.535C266.634 70.96 266.733 70.96 266.733 71.0593C266.833 71.1585 266.833 71.2578 266.833 71.3571L265.939 79.4991C265.939 79.6977 265.741 79.797 265.542 79.797C265.343 79.797 265.244 79.5984 265.244 79.3998L266.138 71.5557H195.044L183.228 177.501H254.322L263.457 96.081C263.457 95.8824 263.655 95.7831 263.854 95.7831C264.053 95.7831 264.152 95.9817 264.152 96.1803L255.017 177.898C254.918 178.196 254.719 178.295 254.62 178.295Z" fill="#1A2E35"/>
<path d="M264.251 92.01C264.052 92.01 263.953 91.8114 263.953 91.6128L264.35 87.6411C264.35 87.4425 264.548 87.3433 264.747 87.3433C264.946 87.3433 265.045 87.5418 265.045 87.7404L264.648 91.7121C264.548 91.9107 264.449 92.01 264.251 92.01Z" fill="#1A2E35"/>
<path d="M271.798 254.553C271.798 254.553 273.684 237.971 280.039 223.573C286.394 209.176 280.635 206.098 277.259 209.772C273.883 213.346 270.11 226.85 270.11 226.85C270.11 226.85 271.798 212.75 271.103 205.204C270.11 194.183 268.422 185.544 263.358 186.934C257.499 188.523 265.84 209.772 263.656 232.013C263.656 232.013 255.911 219.701 253.23 209.275C250.549 198.75 243.499 203.318 245.982 212.75C248.365 222.183 257.797 227.346 261.471 237.574C261.471 237.574 249.357 226.354 245.485 230.822C243.301 233.304 248.861 235.091 251.244 236.283C262.861 241.843 265.84 255.744 265.84 255.744L271.798 254.553Z" fill="#FD9106"/>
<path d="M265.642 255.942C265.443 255.942 265.344 255.842 265.344 255.644C265.344 255.545 262.266 241.842 250.946 236.48C250.549 236.282 250.152 236.083 249.755 235.885C247.67 234.991 244.989 233.799 244.592 232.211C244.492 231.615 244.691 231.019 245.088 230.523C245.684 229.828 246.578 229.431 247.57 229.431C251.641 229.232 258.096 234.296 260.479 236.381C258.691 232.111 255.812 228.636 253.131 225.36C249.854 221.388 246.776 217.714 245.585 212.849C244.195 207.586 245.783 203.614 248.067 203.019C249.755 202.522 252.138 204.012 253.528 209.175C255.812 217.913 261.67 228.14 263.457 231.019C264.351 220.693 263.06 210.863 261.968 202.82C260.776 193.586 259.982 187.529 263.259 186.635C264.45 186.338 265.443 186.536 266.436 187.132C269.713 189.416 270.805 197.558 271.5 205.203C271.997 210.366 271.301 218.707 270.904 223.374C272.195 219.104 274.677 212.054 277.06 209.572C278.451 208.083 280.238 207.685 281.529 208.579C283.614 209.969 284.408 214.636 280.337 223.771C274.082 237.97 272.195 254.452 272.096 254.651C272.096 254.75 271.997 254.949 271.798 254.949L265.642 255.942C265.741 255.942 265.741 255.942 265.642 255.942ZM247.868 230.126C247.769 230.126 247.67 230.126 247.67 230.126C246.776 230.126 246.18 230.424 245.684 231.019C245.287 231.416 245.187 231.814 245.287 232.111C245.585 233.402 248.166 234.494 250.053 235.289C250.549 235.487 250.946 235.686 251.344 235.885C261.968 240.949 265.443 253.162 266.039 255.247L271.599 254.254C271.897 252.169 273.982 236.778 279.841 223.473C283.713 214.735 283.018 210.267 281.231 209.076C280.238 208.381 278.748 208.778 277.656 209.969C274.38 213.444 270.706 226.75 270.606 226.948C270.606 227.147 270.408 227.246 270.209 227.147C270.011 227.147 269.911 226.948 269.911 226.75C269.911 226.65 271.599 212.551 270.904 205.203C270.209 197.657 269.117 189.713 266.138 187.628C265.344 187.132 264.55 186.933 263.557 187.231C260.776 187.926 261.571 194.182 262.663 202.721C263.755 211.061 265.046 221.289 264.053 232.012C264.053 232.111 263.954 232.31 263.755 232.31C263.656 232.31 263.457 232.31 263.358 232.211C263.259 232.111 255.613 219.799 252.833 209.373C251.542 204.607 249.556 203.317 248.166 203.614C246.18 204.111 244.89 207.685 246.18 212.65C247.372 217.416 250.45 221.09 253.627 224.962C256.705 228.636 259.784 232.409 261.571 237.473C261.67 237.573 261.571 237.771 261.471 237.87C261.372 237.97 261.174 237.97 261.074 237.87C261.074 237.771 252.734 230.126 247.868 230.126Z" fill="#1A2E35"/>
<g opacity="0.2">
<g opacity="0.7">
<path opacity="0.7" d="M271.798 254.553C271.798 254.553 273.684 237.971 280.039 223.573C286.394 209.176 280.635 206.098 277.259 209.772C273.883 213.346 270.11 226.85 270.11 226.85C270.11 226.85 271.798 212.75 271.103 205.204C270.11 194.183 268.422 185.544 263.358 186.934C257.499 188.523 265.84 209.772 263.656 232.013C263.656 232.013 255.911 219.701 253.23 209.275C250.549 198.75 243.499 203.318 245.982 212.75C248.365 222.183 257.797 227.346 261.471 237.574C261.471 237.574 249.357 226.354 245.485 230.822C243.301 233.304 248.861 235.091 251.244 236.283C262.861 241.843 265.84 255.744 265.84 255.744L271.798 254.553Z" fill="black"/>
</g>
</g>
<path d="M264.748 250.978C264.748 250.978 265.741 233.602 259.386 219.304C253.031 204.906 258.691 203.814 262.067 207.389C265.443 210.963 268.025 229.63 268.025 229.63C268.025 229.63 271.003 212.949 269.613 201.431C268.223 189.913 268.322 183.459 273.088 183.459C279.145 183.459 277.755 211.658 272.791 228.538C272.791 228.538 280.535 216.226 283.216 205.8C285.897 195.275 292.947 199.842 290.465 209.275C288.082 218.708 278.649 223.871 274.975 234.098C274.975 234.098 287.089 222.878 290.961 227.346C293.146 229.829 287.585 231.616 285.202 232.807C273.585 238.368 270.606 252.269 270.606 252.269L264.748 250.978Z" fill="#FD9106"/>
<path d="M270.904 252.368C270.904 252.368 270.805 252.368 270.904 252.368L264.748 251.276C264.549 251.276 264.45 251.077 264.45 250.978C264.45 250.779 265.344 233.502 259.088 219.403C255.911 212.154 255.315 207.19 257.5 205.7C258.79 204.906 260.677 205.402 262.365 207.19C265.145 210.168 267.33 222.481 268.124 227.445C268.819 222.679 270.507 210.367 269.415 201.431C268.422 192.594 268.124 186.735 270.308 184.253C271.003 183.459 271.996 183.062 273.188 183.062C273.982 183.062 274.677 183.459 275.273 184.253C279.145 189.317 277.755 211.459 273.883 226.353C276.167 222.481 281.032 213.544 283.117 205.7C284.507 200.438 286.791 199.048 288.578 199.544C290.862 200.14 292.451 204.012 291.06 209.374C289.77 214.239 286.692 218.013 283.514 221.885C280.734 225.162 277.954 228.637 276.167 232.906C278.649 230.821 285.004 225.658 289.075 225.956C290.068 226.055 290.961 226.353 291.557 227.048C292.053 227.644 292.252 228.14 292.053 228.736C291.656 230.325 289.075 231.516 286.89 232.41C286.394 232.609 285.997 232.807 285.699 233.006C274.379 238.467 271.4 252.07 271.301 252.169C271.202 252.269 271.003 252.368 270.904 252.368ZM265.145 250.68L270.705 251.673C271.202 249.588 274.677 237.375 285.401 232.311C285.798 232.112 286.195 231.914 286.692 231.715C288.578 230.921 291.16 229.729 291.458 228.538C291.557 228.14 291.458 227.843 291.06 227.445C290.564 226.85 289.869 226.552 289.075 226.552C284.209 226.254 275.67 234.197 275.571 234.297C275.472 234.396 275.273 234.396 275.174 234.297C275.074 234.197 274.975 234.098 275.074 233.899C276.862 228.935 280.039 225.062 283.018 221.389C286.195 217.516 289.273 213.842 290.465 209.076C291.756 204.211 290.365 200.537 288.479 200.041C287.089 199.643 285.103 200.934 283.812 205.8C281.131 216.225 273.386 228.538 273.287 228.637C273.188 228.736 272.989 228.835 272.89 228.736C272.791 228.637 272.691 228.538 272.691 228.339C277.755 211.062 278.152 189.019 274.776 184.551C274.28 183.955 273.784 183.657 273.287 183.657C272.294 183.657 271.5 183.955 270.904 184.65C268.918 186.835 269.216 192.892 270.11 201.331C271.5 212.75 268.521 229.431 268.521 229.63C268.521 229.828 268.322 229.828 268.223 229.928C268.025 229.928 267.925 229.828 267.925 229.63C267.925 229.431 265.344 211.062 262.067 207.587C260.677 206.097 259.088 205.601 258.095 206.197C257.4 206.693 255.414 208.977 259.883 219.105C265.542 232.41 265.145 248.396 265.145 250.68Z" fill="#1A2E35"/>
<path d="M273.584 211.856C273.385 211.856 273.286 211.657 273.286 211.459C273.584 207.288 273.782 202.82 273.286 198.451C273.286 198.253 273.385 198.153 273.584 198.054C273.782 198.054 273.882 198.153 273.981 198.352C274.477 202.721 274.279 207.288 273.981 211.459C273.882 211.657 273.782 211.856 273.584 211.856Z" fill="#1A2E35"/>
<path d="M268.322 248.694C268.222 248.694 268.222 248.694 268.322 248.694C268.123 248.694 268.024 248.495 268.024 248.396C267.825 238.864 266.435 230.225 263.953 222.679C263.853 222.48 263.953 222.282 264.151 222.282C264.35 222.182 264.549 222.282 264.549 222.48C266.832 229.332 268.222 237.076 268.62 245.516C271.003 233.105 272.492 222.778 273.187 213.246C273.187 213.048 273.386 212.948 273.584 212.948C273.783 212.948 273.882 213.147 273.882 213.345C273.088 223.672 271.4 234.793 268.719 248.495C268.52 248.594 268.421 248.694 268.322 248.694Z" fill="#1A2E35"/>
<path d="M263.456 220.992C263.357 220.992 263.158 220.893 263.158 220.793C262.86 220.098 262.562 219.304 262.264 218.708C262.165 218.51 262.264 218.311 262.463 218.311C262.661 218.212 262.86 218.311 262.86 218.51C263.158 219.205 263.456 219.9 263.754 220.694C263.853 220.893 263.754 221.091 263.555 221.091C263.555 220.992 263.555 220.992 263.456 220.992Z" fill="#1A2E35"/>
<path d="M270.704 234.991C270.605 234.991 270.506 234.991 270.506 234.892C270.406 234.793 270.406 234.594 270.506 234.396C275.57 229.927 279.144 223.374 282.024 218.211C282.123 218.012 282.321 218.012 282.421 218.112C282.619 218.211 282.619 218.409 282.52 218.509C279.641 223.771 275.967 230.325 270.903 234.892C270.903 234.892 270.803 234.991 270.704 234.991Z" fill="#1A2E35"/>
<path d="M283.114 217.12C283.015 217.12 283.015 217.12 282.916 217.12C282.717 217.02 282.717 216.822 282.816 216.722C283.809 214.836 284.703 213.048 285.497 211.46C285.597 211.261 285.795 211.261 285.895 211.261C286.093 211.361 286.093 211.559 286.093 211.658C285.299 213.247 284.405 214.935 283.412 216.921C283.412 217.12 283.214 217.12 283.114 217.12Z" fill="#1A2E35"/>
<path d="M269.215 243.729C269.116 243.729 269.116 243.729 269.017 243.629C268.818 243.53 268.818 243.332 268.917 243.133C270.506 240.651 272.889 238.665 274.974 236.977C275.073 236.878 275.272 236.878 275.471 236.977C275.57 237.076 275.57 237.275 275.471 237.473C273.385 239.161 271.102 241.147 269.612 243.53C269.414 243.629 269.314 243.729 269.215 243.729Z" fill="#1A2E35"/>
<path d="M276.464 236.581C276.365 236.581 276.266 236.581 276.166 236.482C276.067 236.382 276.067 236.184 276.266 235.985C279.145 233.701 282.322 231.418 285.599 229.233C285.798 229.134 285.996 229.134 286.096 229.332C286.195 229.531 286.195 229.73 285.996 229.829C282.72 231.914 279.542 234.198 276.663 236.482C276.663 236.581 276.563 236.581 276.464 236.581Z" fill="#1A2E35"/>
<path d="M286.692 244.225H249.557L252.436 283.446H283.813L286.692 244.225Z" fill="#1A2E35"/>
<path d="M126.533 241.941L142.916 276.495H150.76L137.654 237.374L126.533 241.941Z" fill="white"/>
<path d="M150.758 276.893H142.914C142.815 276.893 142.715 276.794 142.616 276.694L126.233 242.141C126.233 242.041 126.233 241.942 126.233 241.843C126.233 241.743 126.332 241.644 126.431 241.644L137.651 237.077C137.751 237.077 137.85 237.077 137.949 237.077C138.049 237.077 138.049 237.176 138.148 237.275L151.155 276.397C151.155 276.496 151.155 276.595 151.155 276.694C150.957 276.794 150.857 276.893 150.758 276.893ZM143.112 276.198H150.262L137.453 237.772L126.928 242.041L143.112 276.198Z" fill="#1A2E35"/>
<path d="M142.516 251.276C142.516 251.276 136.161 254.354 130.998 253.261L129.111 249.885C129.111 249.885 124.246 245.814 119.381 237.871C118.09 235.786 116.898 233.502 115.707 230.921C110.047 218.31 104.387 202.225 104.387 202.225L91.5786 171.047L90.8836 169.458L85.9189 154.862L116.005 139.075C116.005 139.075 120.076 159.827 119.778 165.189C119.48 170.551 134.076 215.927 135.764 221.388C137.353 226.85 142.516 242.538 141.225 247.602L142.516 251.276Z" fill="#FD9106"/>
<path d="M133.38 253.857C132.586 253.857 131.692 253.758 130.898 253.659C130.798 253.659 130.699 253.559 130.699 253.46L128.813 250.084C128.316 249.687 123.649 245.517 119.082 237.97C117.692 235.687 116.5 233.403 115.408 231.02C109.748 218.608 104.188 202.424 104.089 202.324L90.5849 169.558L85.6202 154.962C85.521 154.763 85.6203 154.664 85.8188 154.564L115.905 138.876C116.004 138.876 116.103 138.777 116.202 138.876C116.302 138.876 116.401 138.975 116.401 139.075C116.6 139.968 120.472 159.926 120.174 165.288C119.976 169.657 130.004 201.728 134.274 215.431C135.167 218.31 135.862 220.396 136.061 221.289C136.26 221.885 136.458 222.679 136.756 223.474C138.841 230.225 142.714 242.836 141.621 247.502L142.912 251.077C143.011 251.276 142.912 251.375 142.714 251.474C142.416 251.673 137.948 253.857 133.38 253.857ZM131.196 252.964C135.564 253.857 140.827 251.673 142.118 251.077L140.926 247.701C140.926 247.602 140.926 247.602 140.926 247.502C142.019 243.134 138.047 230.027 136.16 223.771C135.862 222.878 135.664 222.183 135.465 221.587C135.167 220.693 134.572 218.608 133.678 215.729C129.408 202.026 119.38 169.855 119.578 165.288C119.777 160.423 116.401 142.649 115.905 139.671L86.3153 154.962L91.1806 169.26L104.684 202.026C104.784 202.225 110.344 218.31 116.004 230.722C117.096 233.105 118.288 235.389 119.678 237.672C124.444 245.517 129.309 249.588 129.309 249.588L129.408 249.687L131.196 252.964Z" fill="#1A2E35"/>
<g opacity="0.2">
<g opacity="0.7">
<path opacity="0.7" d="M119.678 237.376C119.578 237.574 119.479 237.674 119.38 237.773C118.089 235.688 116.897 233.404 115.706 230.822C110.046 218.212 104.386 202.127 104.386 202.127L91.5776 170.949L102.996 160.722L106.372 161.218C106.372 161.218 108.656 164.693 105.379 166.779C102.202 168.764 107.663 176.708 110.344 182.467C113.025 188.226 108.358 193.786 108.358 193.786C108.358 193.786 112.628 202.921 117.99 207.389C117.99 207.389 113.819 206.297 115.904 210.666C118.089 215.233 124.046 231.021 119.678 237.376Z" fill="black"/>
</g>
</g>
<path d="M132.886 249.786C132.489 249.786 132.191 249.786 132.191 249.786C131.992 249.786 131.893 249.588 131.893 249.489C131.893 249.29 132.091 249.191 132.191 249.191C132.29 249.191 137.155 249.389 139.042 247.801C139.141 247.701 139.34 247.701 139.538 247.9C139.638 247.999 139.638 248.198 139.439 248.396C137.751 249.588 134.375 249.786 132.886 249.786Z" fill="#1A2E35"/>
<path d="M141.623 283.447C140.034 282.752 141.524 276.596 141.524 276.596C141.524 276.596 139.339 275.106 141.524 273.617C141.524 273.617 144.006 276 147.779 274.61C147.779 274.61 148.176 270.44 150.758 271.035C150.758 271.035 151.453 273.617 152.942 275.106C157.013 279.177 162.375 279.574 163.269 281.56C163.567 282.156 163.169 283.447 163.169 283.447H141.623Z" fill="#1A2E35"/>
<path d="M138.249 85.5557L157.015 113.656L182.434 93.5984L188.293 96.5772C188.293 96.5772 164.363 125.67 156.42 126.564C148.476 127.556 129.511 100.152 129.511 100.152" fill="white"/>
<path d="M156.121 126.961C147.879 126.961 130.106 101.443 129.411 100.351C129.312 100.252 129.312 99.9537 129.51 99.8544C129.61 99.7552 129.907 99.7551 130.007 99.9537C130.205 100.252 148.972 127.16 156.617 126.266C163.866 125.373 185.313 99.8544 187.994 96.6771L182.731 93.9962L157.411 113.954C157.312 114.053 157.213 114.053 157.114 114.053C157.014 114.053 156.915 113.954 156.915 113.954L138.149 85.8542C138.049 85.6556 138.049 85.457 138.248 85.3577C138.447 85.2584 138.645 85.2584 138.744 85.457L157.312 113.259L182.533 93.4004C182.632 93.3011 182.731 93.3011 182.93 93.4004L188.788 96.3792C188.887 96.3792 188.987 96.4785 188.987 96.5778C188.987 96.6771 188.987 96.7764 188.887 96.8757C187.894 98.0672 164.759 126.068 156.816 126.961C156.419 126.862 156.22 126.961 156.121 126.961Z" fill="#1A2E35"/>
<path d="M135.466 81.2871C135.466 81.2871 141.126 83.3723 144.601 89.4291C148.076 95.486 151.651 100.649 151.651 100.649C151.651 100.649 143.31 109.784 136.658 112.366L128.714 109.586L135.466 81.2871Z" fill="#1A2E35"/>
<path d="M90.5881 243.63L99.6238 276.496H107.369L103.993 238.864L90.5881 243.63Z" fill="white"/>
<path d="M107.367 276.893H99.6221C99.5228 276.893 99.3242 276.794 99.3242 276.695L90.2886 243.829C90.2886 243.63 90.2886 243.531 90.4872 243.432L103.892 238.666C103.991 238.666 104.09 238.666 104.19 238.666C104.289 238.765 104.289 238.765 104.289 238.864L107.665 276.496C107.665 276.595 107.665 276.695 107.566 276.794C107.566 276.794 107.466 276.893 107.367 276.893ZM99.8207 276.198H106.97L103.693 239.361L90.9836 243.829L99.8207 276.198Z" fill="#1A2E35"/>
<path d="M116.005 149.302L81.6495 132.521C81.6495 132.521 75.4934 150.791 75.7912 166.281C76.0891 181.671 81.2523 202.821 81.6495 212.551C82.0467 222.282 81.4509 240.651 92.0752 253.361L93.366 257.432C93.366 257.432 103.196 258.822 106.274 257.432L105.778 253.559C105.778 253.559 110.047 245.02 106.771 231.218C103.593 217.417 102.005 167.075 102.005 167.075C102.005 167.075 105.877 163.799 107.366 160.522" fill="#FD9106"/>
<path d="M101.608 258.226C97.8351 258.226 93.6648 257.63 93.3669 257.63C93.2676 257.63 93.1683 257.531 93.069 257.432L91.7782 253.46C82.1468 241.942 81.6504 226.155 81.3525 215.63C81.3525 214.537 81.2532 213.445 81.2532 212.551C81.0546 208.381 80.0617 202.324 78.8702 195.275C77.2815 185.842 75.5935 175.118 75.3949 166.281C75.097 150.99 81.1539 132.621 81.2532 132.422C81.2532 132.323 81.3525 132.224 81.4518 132.224C81.5511 132.224 81.6504 132.224 81.7496 132.224L116.105 149.004C116.304 149.103 116.304 149.302 116.304 149.401C116.204 149.6 116.006 149.6 115.906 149.6L81.9482 133.018C81.0546 135.6 75.8914 152.281 76.1892 166.281C76.3878 175.118 78.1751 185.742 79.6645 195.175C80.856 202.225 81.8489 208.381 82.0475 212.551C82.0475 213.544 82.1468 214.537 82.1468 215.63C82.4447 226.055 82.8419 241.744 92.4733 253.063C92.4733 253.063 92.4733 253.162 92.5725 253.162L93.8634 257.035C95.2535 257.233 103.197 258.226 106.176 257.134L105.679 253.559C105.679 253.46 105.679 253.46 105.679 253.361C105.679 253.261 109.849 244.722 106.672 231.219C103.495 217.615 101.906 167.473 101.906 166.976C101.906 166.877 101.906 166.778 102.005 166.678C102.005 166.678 105.778 163.402 107.268 160.224C107.367 160.026 107.566 160.026 107.665 160.026C107.864 160.125 107.864 160.323 107.864 160.423C106.474 163.402 103.197 166.38 102.502 166.976C102.601 170.054 104.19 217.715 107.268 230.921C110.247 243.928 106.672 252.368 106.275 253.361L106.771 257.134C106.771 257.233 106.672 257.432 106.573 257.432C105.381 258.127 103.594 258.226 101.608 258.226Z" fill="#1A2E35"/>
<path d="M83.3391 128.153C85.4242 116.535 88.1051 88.9319 97.4387 82.6764C106.772 76.421 122.659 75.8252 129.113 78.4068C141.723 83.3715 141.922 85.7545 139.837 95.2866C137.752 104.819 124.248 134.011 124.248 134.011L121.07 149.5C121.07 149.5 109.254 158.536 95.7507 154.763C79.8638 150.295 77.2822 140.366 77.2822 140.366L83.3391 128.153Z" fill="#1A2E35"/>
<path d="M130.5 71.953C130.302 72.3501 130.004 72.7473 129.607 73.1445C129.309 73.4424 129.011 73.7402 128.813 73.9388C127.72 75.2296 127.224 76.3218 127.025 77.3148C126.926 78.1091 126.926 78.7049 127.125 79.3006C127.522 80.79 128.713 81.6836 128.713 81.6836C128.713 81.6836 128.912 85.8539 123.749 86.3504C117.592 86.9462 114.117 80.4921 114.117 80.4921C121.862 69.8678 116.004 65.3996 116.004 65.3996C123.451 61.3286 133.38 66.9883 130.5 71.953Z" fill="white"/>
<path d="M122.955 86.7486C117.097 86.7486 113.82 80.791 113.82 80.6917C113.721 80.5924 113.721 80.4931 113.82 80.3938C121.267 70.1667 116.004 65.9964 115.806 65.7978C115.706 65.6985 115.706 65.5992 115.706 65.4999C115.706 65.4006 115.806 65.3013 115.905 65.202C120.87 62.4218 127.026 63.9112 129.806 66.7907C131.494 68.4787 131.891 70.4646 130.898 72.1525C130.7 72.5497 130.302 72.9469 129.905 73.344C129.607 73.6419 129.409 73.9398 129.111 74.1384C128.118 75.2306 127.622 76.3228 127.423 77.4151C127.324 78.0108 127.324 78.7059 127.522 79.3016C127.919 80.6917 128.912 81.4861 128.912 81.4861C129.012 81.5853 129.012 81.6846 129.012 81.6846C129.012 81.6846 129.111 86.1528 123.749 86.6493C123.451 86.7486 123.153 86.7486 122.955 86.7486ZM114.416 80.5924C115.011 81.5853 118.288 86.6493 123.65 86.1528C127.919 85.7556 128.317 82.6776 128.317 81.9825C128.019 81.6846 127.125 80.8903 126.827 79.5995C126.629 78.9044 126.629 78.2094 126.728 77.5143C126.926 76.3228 127.522 75.1313 128.614 73.9398C128.813 73.6419 129.111 73.344 129.409 73.0462C129.806 72.649 130.104 72.3511 130.302 71.9539C131.494 69.9681 130.203 68.1808 129.31 67.3865C126.728 64.7056 121.168 63.4148 116.501 65.6985C117.692 66.7907 120.87 71.5568 114.416 80.5924Z" fill="#1A2E35"/>
<path d="M128.812 73.939C127.719 75.2298 127.223 76.322 127.024 77.3149C122.854 75.2298 122.656 72.251 122.656 72.251C122.656 72.251 124.939 72.5489 127.819 73.7404C128.017 73.939 128.414 73.939 128.812 73.939Z" fill="#1A2E35"/>
<path d="M114.814 60.6334C112.034 48.6189 117.793 43.3564 121.665 41.867C127.722 39.3847 135.666 43.3564 137.453 50.009C139.24 56.6616 137.651 58.2503 137.751 60.9312C137.85 62.8178 138.942 63.8107 137.651 68.5768C136.758 71.7542 135.368 76.9174 129.907 75.9244C127.722 75.5273 124.545 74.0379 122.559 72.3499" fill="white"/>
<path d="M131.198 76.4211C130.8 76.4211 130.304 76.4211 129.907 76.3218C127.623 75.9247 124.446 74.336 122.36 72.7473C122.261 72.648 122.162 72.4494 122.36 72.2508C122.46 72.1515 122.658 72.0522 122.857 72.2508C124.843 73.8395 127.921 75.3289 130.105 75.7261C135.269 76.6197 136.659 71.6551 137.453 68.577C138.347 65.201 138.049 63.8109 137.751 62.6194C137.652 62.123 137.552 61.6265 137.453 61.0307C137.453 60.1371 137.552 59.4421 137.751 58.6477C138.049 56.8604 138.446 54.7753 137.254 50.2078C136.361 47.0305 134.077 44.3496 130.999 42.8602C128.02 41.3708 124.644 41.1722 121.864 42.3637C112.431 46.2361 114.715 58.4491 115.211 60.8322C115.211 61.0307 115.112 61.2293 115.013 61.2293C114.814 61.2293 114.616 61.13 114.616 61.0307C112.034 50.1085 116.602 43.9524 121.665 41.8672C124.644 40.6757 128.119 40.8743 131.297 42.3637C134.573 43.9524 137.056 46.8319 137.949 50.2078C139.24 54.8746 138.843 57.1583 138.446 58.9456C138.347 59.7399 138.148 60.435 138.148 61.2293C138.148 61.7258 138.247 62.2223 138.347 62.7187C138.644 64.0095 139.042 65.4989 138.049 69.0735C137.155 71.4565 135.864 76.4211 131.198 76.4211Z" fill="#1A2E35"/>
<path d="M114.02 42.7611C114.02 42.7611 114.715 37.2007 120.375 37.2007C122.857 37.2007 125.439 41.7682 129.014 40.1795C132.588 38.5908 136.163 38.7894 137.255 40.0802C139.539 42.8604 136.957 45.5413 139.737 46.137C142.517 46.7328 143.411 49.4137 141.822 51.3995C140.333 53.2861 142.021 55.272 141.723 56.6621C140.929 60.1373 137.652 60.038 137.652 60.038C137.652 60.038 139.141 51.6974 136.858 50.3073C134.872 49.1158 133.184 50.8038 133.184 50.8038C130.106 49.0165 126.63 50.4066 125.638 51.6974C123.85 53.9812 125.042 56.6621 123.155 58.1515C122.46 58.6479 120.474 59.0451 120.772 60.7331C121.07 62.421 119.481 63.6126 119.481 63.6126L118.29 67.1871C118.29 67.1871 119.68 70.8609 117.297 73.7404C116.602 74.634 115.212 74.7333 112.729 73.1447C112.729 73.1447 115.013 71.9531 114.02 69.5701C113.425 68.18 111.737 69.3715 110.446 67.5843C108.956 65.5984 110.446 62.7189 110.247 60.9317C110.049 59.5416 108.46 60.4352 107.07 57.5557C106.673 56.7614 106.375 52.6904 108.857 50.208C108.956 50.3073 106.375 44.7469 114.02 42.7611Z" fill="#1A2E35"/>
<path d="M121.566 62.8176C121.566 62.8176 119.381 58.7466 117.098 59.7395C114.814 60.7324 116.403 65.6971 118.388 67.2858C120.374 68.8745 121.566 67.2858 121.566 67.2858" fill="white"/>
<path d="M120.077 68.1798C119.481 68.1798 118.786 67.8819 118.191 67.3854C116.602 66.0946 115.41 63.2151 115.708 61.2293C115.807 60.3356 116.304 59.6406 116.999 59.3427C119.581 58.2505 121.864 62.4208 121.964 62.6194C122.063 62.818 121.964 63.0166 121.864 63.0166C121.666 63.1158 121.467 63.0166 121.467 62.9173C121.467 62.9173 119.382 59.0448 117.396 59.9385C116.9 60.1371 116.602 60.6335 116.503 61.3286C116.304 63.0165 117.396 65.7968 118.786 66.889C119.382 67.3854 119.978 67.584 120.474 67.4847C121.169 67.3854 121.467 66.889 121.467 66.889C121.566 66.7897 121.765 66.6904 121.964 66.7897C122.063 66.889 122.162 67.0876 122.063 67.2861C122.063 67.2861 121.566 67.9812 120.574 68.0805C120.276 68.1798 120.176 68.1798 120.077 68.1798Z" fill="#1A2E35"/>
<path d="M127.126 58.8461H127.027C126.828 58.7468 126.828 58.5483 126.828 58.449C128.119 55.5695 130.701 56.4631 130.701 56.4631C130.899 56.5624 130.999 56.761 130.899 56.8603C130.8 57.0589 130.602 57.1582 130.502 57.0589C130.403 57.0589 128.516 56.3638 127.424 58.6475C127.424 58.8461 127.325 58.8461 127.126 58.8461Z" fill="#1A2E35"/>
<path d="M134.971 56.86C134.872 56.86 134.872 56.86 134.772 56.86C134.574 56.7607 134.574 56.5621 134.673 56.4628C135.765 54.5762 138.248 55.0727 138.347 55.0727C138.546 55.0727 138.645 55.2713 138.645 55.4699C138.645 55.6685 138.446 55.7678 138.248 55.7678C138.248 55.7678 136.063 55.3706 135.269 56.86C135.17 56.86 135.07 56.86 134.971 56.86Z" fill="#1A2E35"/>
<path d="M134.277 65.7968C134.078 65.7968 133.979 65.6975 133.979 65.4989C133.979 65.3003 134.078 65.201 134.277 65.201C134.376 65.201 135.965 65.1017 136.263 63.7116C136.362 63.2152 136.263 63.1159 136.263 63.0166C136.163 62.9173 135.965 62.9173 135.766 62.9173C135.468 62.9173 135.071 62.9173 134.773 62.7187C133.78 62.2222 133.979 60.2364 133.979 59.9385C133.979 59.7399 134.177 59.6406 134.376 59.6406C134.575 59.6406 134.674 59.8392 134.674 60.0378C134.575 60.8321 134.674 62.0236 135.071 62.2222C135.27 62.3215 135.568 62.3215 135.766 62.3215C136.163 62.3215 136.56 62.3215 136.759 62.6194C136.958 62.9173 136.958 63.2152 136.858 63.8109C136.56 65.3003 135.071 65.7968 134.277 65.7968Z" fill="#1A2E35"/>
<path d="M130.206 60.5349C130.206 61.1307 129.908 61.5278 129.61 61.5278C129.312 61.5278 129.014 61.0314 129.014 60.5349C129.014 59.9392 129.312 59.542 129.61 59.542C129.908 59.542 130.206 59.9392 130.206 60.5349Z" fill="#1A2E35"/>
<path d="M129.609 61.8258C129.112 61.8258 128.715 61.23 128.715 60.5349C128.715 59.7406 129.112 59.2441 129.609 59.2441C130.105 59.2441 130.502 59.8399 130.502 60.5349C130.502 61.3293 130.105 61.8258 129.609 61.8258ZM129.609 59.8399C129.509 59.8399 129.41 60.0385 129.41 60.5349C129.41 61.0314 129.609 61.23 129.609 61.23C129.708 61.23 129.807 61.0314 129.807 60.5349C129.807 60.0385 129.708 59.8399 129.609 59.8399Z" fill="#1A2E35"/>
<path d="M136.558 59.9392C136.558 60.535 136.26 60.9321 135.962 60.9321C135.665 60.9321 135.367 60.4357 135.367 59.9392C135.367 59.3435 135.665 58.9463 135.962 58.9463C136.36 58.9463 136.558 59.4428 136.558 59.9392Z" fill="#1A2E35"/>
<path d="M136.064 61.3292C135.567 61.3292 135.17 60.7334 135.17 60.0384C135.17 59.244 135.567 58.7476 136.064 58.7476C136.56 58.7476 136.957 59.3433 136.957 60.0384C136.957 60.7334 136.56 61.3292 136.064 61.3292ZM136.064 59.244C135.964 59.244 135.865 59.4426 135.865 59.9391C135.865 60.4355 136.064 60.6341 136.064 60.6341C136.163 60.6341 136.262 60.4355 136.262 59.9391C136.262 59.4426 136.064 59.244 136.064 59.244Z" fill="#1A2E35"/>
<path d="M133.677 68.3783C131.79 68.3783 130.102 67.4847 130.003 67.3854C129.805 67.2861 129.805 67.0875 129.904 66.9882C130.003 66.7897 130.202 66.7897 130.301 66.889C130.301 66.889 132.684 68.1798 134.769 67.584C134.968 67.584 135.166 67.6833 135.166 67.7826C135.166 67.9812 135.067 68.1798 134.968 68.1798C134.571 68.279 134.074 68.3783 133.677 68.3783Z" fill="#1A2E35"/>
<path d="M132.785 69.8678C132.686 69.8678 132.586 69.8678 132.487 69.8678C130.998 69.6692 130.402 68.3784 130.302 67.6833C130.302 67.4847 130.402 67.3854 130.6 67.2861C130.799 67.2861 130.898 67.3854 130.998 67.584C130.998 67.6833 131.295 69.0734 132.686 69.272C133.083 69.272 133.381 69.272 133.678 69.0734C134.076 68.7755 134.076 68.0805 134.076 68.0805C134.076 67.8819 134.274 67.7826 134.373 67.7826C134.572 67.7826 134.671 67.9812 134.671 68.0805C134.671 68.0805 134.572 68.9741 133.976 69.4706C133.678 69.7685 133.281 69.8678 132.785 69.8678Z" fill="#1A2E35"/>
<path d="M133.283 50.8039C133.283 50.8039 131.794 48.9173 129.609 50.0095C127.425 51.1017 128.12 53.4848 128.12 54.9742C128.02 56.4636 126.928 55.8678 125.836 56.7614C124.744 57.6551 125.439 59.0452 125.439 59.0452C125.439 59.0452 123.155 58.648 124.744 56.6621C126.332 54.6763 127.623 55.0735 126.63 53.1869C125.637 51.3003 126.432 48.9173 128.715 48.3215C131.098 47.6265 133.184 48.9173 133.283 50.8039Z" fill="#1A2E35"/>
<path d="M97.5375 283.447C97.5375 283.447 96.7432 280.369 97.6368 279.276C99.3248 277.191 97.4382 275.503 99.1262 274.808L99.8213 275.603C99.9205 274.808 99.5234 272.227 102.701 271.929C106.474 271.532 106.573 274.312 106.772 275.205L106.672 273.915C108.261 273.915 107.467 275.503 109.949 278.184C111.836 280.17 111.836 282.752 111.736 283.447H97.5375Z" fill="#1A2E35"/>
<path d="M134.277 110.578C134.178 110.578 134.078 110.578 134.078 110.479C133.979 110.38 133.979 110.181 134.078 109.982C137.454 106.507 139.937 101.542 141.426 95.1877C141.426 94.9892 141.625 94.8899 141.823 94.9891C142.022 94.9891 142.121 95.1877 142.022 95.3863C140.433 101.84 137.851 106.904 134.476 110.479C134.476 110.479 134.376 110.578 134.277 110.578Z" fill="white"/>
<path d="M142.218 93.797C142.119 93.797 142.119 93.797 142.218 93.797C142.02 93.797 141.821 93.5984 141.92 93.3998C142.119 92.5062 142.218 91.7119 142.318 90.9175C142.318 90.7189 142.516 90.6196 142.715 90.6196C142.913 90.6196 143.013 90.8182 143.013 91.0168C142.913 91.8111 142.814 92.6055 142.615 93.4991C142.516 93.6977 142.318 93.797 142.218 93.797Z" fill="white"/>
<path d="M101.806 142.948C100.813 142.948 99.8205 142.848 99.0261 142.65C98.8276 142.65 98.7283 142.451 98.7283 142.252C98.7283 142.054 98.9269 141.955 99.1254 141.955C100.019 142.153 101.012 142.252 102.005 142.252C102.204 142.252 102.303 142.352 102.303 142.55C102.303 142.749 102.204 142.848 102.005 142.848C101.906 142.948 101.906 142.948 101.806 142.948Z" fill="white"/>
<path d="M103.692 142.848C103.494 142.848 103.395 142.749 103.395 142.551C103.395 142.352 103.494 142.253 103.692 142.153C109.451 141.558 115.806 138.678 122.459 133.813C122.558 133.713 122.856 133.713 122.955 133.912C123.054 134.011 123.054 134.309 122.856 134.409C116.005 139.373 109.551 142.253 103.692 142.848Z" fill="white"/>
<path d="M85.9211 128.551C85.0275 128.551 84.6303 128.451 84.531 128.451C84.3324 128.451 84.2331 128.253 84.3324 128.054C84.3324 127.856 84.531 127.756 84.7296 127.856C84.7296 127.856 87.6091 128.551 91.9779 126.366C92.1765 126.267 92.3751 126.366 92.3751 126.466C92.4744 126.664 92.3751 126.863 92.2758 126.863C89.3963 128.253 87.2119 128.551 85.9211 128.551Z" fill="white"/>
<path d="M122.956 88.6344C122.559 88.6344 122.162 88.6344 121.764 88.5351C121.566 88.5351 121.467 88.3365 121.467 88.1379C121.467 87.9393 121.665 87.84 121.864 87.84C122.857 87.9393 123.85 87.9393 124.843 87.7407C125.041 87.7407 125.14 87.84 125.24 88.0386C125.24 88.2372 125.14 88.3365 124.942 88.4358C124.147 88.6344 123.552 88.6344 122.956 88.6344Z" fill="white"/>
<path d="M120.076 88.2373C116.7 87.3436 113.523 84.762 111.636 81.3861C111.537 81.1875 111.636 80.9889 111.736 80.9889C111.934 80.8896 112.133 80.9889 112.133 81.0882C114.019 84.2655 116.998 86.7479 120.076 87.6415C120.275 87.6415 120.374 87.8401 120.275 88.0387C120.374 88.138 120.275 88.2373 120.076 88.2373Z" fill="white"/>
<path d="M100.02 220.396C94.4592 218.708 84.7285 204.906 84.3313 204.31C84.232 204.211 84.232 203.913 84.4306 203.814C84.5299 203.714 84.8278 203.714 84.9271 203.913C85.0264 204.012 95.055 218.211 100.218 219.8C100.417 219.899 100.516 219.998 100.417 220.197C100.317 220.296 100.218 220.396 100.02 220.396Z" fill="#1A2E35"/>
<path d="M100.418 254.354C97.5381 254.354 94.7579 253.858 94.5593 253.858C94.3608 253.858 94.2615 253.659 94.2615 253.461C94.2615 253.262 94.4601 253.163 94.6586 253.163C94.7579 253.163 101.212 254.354 104.29 253.163C104.489 253.064 104.687 253.163 104.687 253.362C104.787 253.56 104.687 253.759 104.489 253.759C103.396 254.156 101.907 254.354 100.418 254.354Z" fill="#1A2E35"/>
<path d="M129.311 215.531C127.623 215.134 126.233 214.34 124.942 213.545C118.488 209.375 112.928 203.517 107.665 197.956L107.467 197.658C107.367 197.559 107.367 197.36 107.467 197.162C107.566 197.063 107.764 197.063 107.963 197.162L108.162 197.46C113.424 203.02 118.885 208.779 125.339 212.949C126.531 213.744 127.921 214.538 129.41 214.836C129.609 214.836 129.708 215.035 129.708 215.233C129.609 215.432 129.51 215.531 129.311 215.531Z" fill="#1A2E35"/>
<path d="M106.374 196.466C106.275 196.466 106.176 196.466 106.176 196.367C105.481 195.672 104.885 194.877 104.19 194.182C104.09 194.083 104.09 193.884 104.19 193.686C104.289 193.587 104.488 193.587 104.686 193.686C105.381 194.381 105.977 195.175 106.672 195.87C106.771 195.97 106.771 196.168 106.672 196.367C106.573 196.466 106.473 196.466 106.374 196.466Z" fill="#1A2E35"/>
<path d="M103.692 167.87C103.494 167.87 103.395 167.77 103.395 167.572C103.395 167.373 103.494 167.274 103.692 167.274C106.671 167.274 108.955 166.082 108.955 165.983C109.154 165.884 109.352 165.983 109.352 166.082C109.451 166.281 109.352 166.479 109.253 166.479C109.154 166.579 106.87 167.87 103.692 167.87Z" fill="#1A2E35"/>
<path d="M100.516 167.87C100.416 167.87 100.317 167.87 100.218 167.77C100.218 167.671 95.551 162.111 91.1822 161.714C90.9836 161.714 90.8843 161.515 90.8843 161.316C90.8843 161.118 91.0829 161.019 91.2815 161.019C95.8489 161.416 100.615 167.075 100.814 167.373C100.913 167.473 100.913 167.671 100.814 167.87C100.615 167.77 100.615 167.87 100.516 167.87Z" fill="#1A2E35"/>
<path d="M95.848 105.613C95.848 105.613 79.7626 122.989 75.7909 122.294C71.8192 121.599 69.8333 115.244 70.6277 113.457C71.5213 111.67 86.0181 94.8892 86.0181 94.8892L95.848 105.613Z" fill="white"/>
<path d="M76.188 122.692C75.9895 122.692 75.8902 122.692 75.7909 122.692C73.4079 122.294 72.0178 120.11 71.3227 118.819C70.2305 116.734 69.8333 114.45 70.4291 113.358C71.3227 111.571 85.2237 95.3861 85.8195 94.6911C85.9187 94.5918 86.018 94.5918 86.018 94.5918C86.1173 94.5918 86.2166 94.5918 86.2166 94.6911L96.0466 105.415C96.1459 105.514 96.1459 105.713 96.0466 105.812C96.0466 105.812 91.9756 110.181 87.5074 114.45C79.6633 121.897 77.0817 122.692 76.188 122.692ZM86.1173 95.3861C81.0534 101.244 71.7199 112.266 71.0248 113.656C70.6277 114.45 70.9255 116.536 71.9185 118.521C72.5142 119.713 73.805 121.699 75.8902 121.997C78.9683 122.493 90.7841 110.578 95.4508 105.613L86.1173 95.3861Z" fill="#1A2E35"/>
<path d="M102.007 80.1943C102.007 80.1943 92.4747 82.8752 87.8079 89.925C83.0419 96.9748 80.8574 98.6628 80.8574 98.6628C80.8574 98.6628 85.7228 107.599 89.9924 110.379C94.2619 113.16 103.397 108.096 103.397 108.096L102.007 80.1943Z" fill="#1A2E35"/>
<path d="M101.013 87.8402C100.914 87.8402 100.814 87.7409 100.715 87.6416C100.219 86.748 99.5236 86.0529 98.8286 85.5565C98.63 85.4572 98.63 85.2586 98.7293 85.06C98.8286 84.8614 99.0272 84.8614 99.2258 84.9607C100.02 85.4572 100.814 86.2515 101.311 87.2445C101.41 87.4431 101.311 87.6416 101.212 87.7409C101.212 87.8402 101.112 87.8402 101.013 87.8402Z" fill="white"/>
<path d="M92.4738 112.266C91.7787 112.266 90.6865 111.571 90.5872 111.472C90.4879 111.372 90.3886 111.174 90.4879 110.975C90.5872 110.876 90.7858 110.777 90.9844 110.876C91.2822 111.075 91.878 111.472 92.3745 111.472C93.566 110.082 95.1547 109.387 96.7434 108.692C98.7292 107.798 100.516 107.004 101.212 105.018C103.396 101.145 103.495 96.0814 101.609 89.3295C101.509 89.1309 101.708 88.9323 101.807 88.9323C102.006 88.833 102.204 89.0316 102.204 89.1309C104.19 96.0814 104.091 101.344 101.807 105.316C101.013 107.599 99.0271 108.493 97.0412 109.387C95.4525 110.082 93.8639 110.777 92.7716 112.167C92.6724 112.167 92.5731 112.266 92.4738 112.266Z" fill="white"/>
<path d="M75.8905 122.294C71.323 121.5 66.557 121.202 63.7768 104.123C60.9966 86.9456 60.9966 86.9456 60.9966 86.9456L67.1527 85.0591C67.1527 85.0591 74.8976 103.825 77.2806 108.492C79.6636 113.159 78.3728 116.138 78.3728 116.138" fill="white"/>
<path d="M75.891 122.692C75.7917 122.692 75.7917 122.692 75.891 122.692L75.3945 122.592C70.8271 121.798 66.1603 121.103 63.4794 104.223L60.6992 87.0454C60.6992 86.8469 60.7985 86.7476 60.8978 86.6483L67.0539 84.7617C67.2525 84.7617 67.3518 84.7617 67.4511 84.9603C67.5504 85.1589 75.196 103.826 77.579 108.393C80.0613 113.159 78.6712 116.238 78.6712 116.337C78.5719 116.535 78.3733 116.535 78.274 116.535C78.0754 116.436 78.0754 116.238 78.0754 116.138C78.0754 116.138 79.3663 113.259 77.0825 108.791C74.7988 104.422 68.0469 87.9391 67.0539 85.5561L61.3943 87.244L64.0752 104.124C66.7561 120.507 71.125 121.301 75.4938 121.997L75.891 122.096C76.0896 122.096 76.1889 122.294 76.1889 122.493C76.1889 122.592 75.9903 122.692 75.891 122.692Z" fill="#1A2E35"/>
<path d="M182.235 93.7983C182.235 93.7983 186.802 88.7344 189.086 87.4436C191.171 86.2521 193.355 85.3584 193.753 85.4577C194.845 85.7556 197.724 88.933 197.724 88.933C197.724 88.933 197.327 90.0252 195.441 89.2309C195.441 89.2309 197.625 91.9118 197.228 93.3019C196.93 94.692 194.448 95.9828 193.852 96.6778C193.256 97.2736 192.76 96.6778 192.76 96.6778C192.76 96.6778 188.291 99.7559 185.313 98.9615" fill="white"/>
<path d="M186.404 99.557C186.007 99.557 185.709 99.557 185.312 99.4577C185.113 99.4577 185.014 99.2591 185.113 99.0605C185.113 98.8619 185.312 98.7626 185.51 98.8619C188.29 99.557 192.659 96.6775 192.659 96.5782C192.759 96.4789 192.957 96.4789 193.057 96.6775C193.057 96.6775 193.255 96.8761 193.354 96.8761C193.454 96.8761 193.553 96.7768 193.652 96.6775C193.851 96.4789 194.149 96.2803 194.546 95.9824C195.44 95.2874 196.73 94.3937 196.929 93.5001C197.227 92.5072 195.737 90.422 195.142 89.6277C195.042 89.5284 195.042 89.3298 195.142 89.2305C195.241 89.1312 195.44 89.0319 195.539 89.1312C196.333 89.5284 196.83 89.4291 197.028 89.3298C197.128 89.3298 197.227 89.2305 197.227 89.1312C196.135 87.9397 194.248 86.0532 193.553 85.9539C193.255 85.8546 191.269 86.5496 189.085 87.8404C186.9 89.1312 182.432 93.9966 182.333 94.0959C182.234 94.1952 182.035 94.1952 181.836 94.0959C181.737 93.9966 181.737 93.798 181.836 93.5994C182.035 93.4008 186.503 88.5355 188.688 87.2447C190.574 86.1525 192.957 85.1595 193.652 85.2588C194.844 85.5567 197.525 88.5355 197.823 88.8334C197.922 88.9326 197.922 89.0319 197.922 89.1312C197.922 89.1312 197.723 89.6277 197.227 89.8263C196.929 89.9256 196.631 90.0249 196.234 89.9256C196.929 90.9185 197.823 92.4079 197.525 93.5001C197.227 94.5923 195.936 95.5853 194.943 96.3796C194.546 96.6775 194.248 96.8761 194.149 97.0747C193.851 97.3725 193.553 97.4718 193.354 97.4718C193.156 97.4718 192.957 97.3725 192.759 97.2732C191.964 97.7697 188.986 99.557 186.404 99.557Z" fill="#1A2E35"/>
<path d="M183.821 86.4512L209.737 92.2102V93.0045L183.523 87.742C183.424 87.8413 183.027 86.9476 183.821 86.4512Z" fill="#757575"/>
<path d="M209.638 93.4009L183.325 88.1384C183.226 88.1384 183.127 88.0391 183.127 87.9398C183.028 87.5426 182.928 86.649 183.623 86.1525C183.723 86.1525 183.822 86.0532 183.822 86.1525L209.737 91.9115C209.936 91.9115 210.035 92.1101 210.035 92.2094V93.0037C210.035 93.103 210.035 93.2023 209.936 93.3016C209.837 93.4009 209.737 93.4009 209.638 93.4009ZM183.623 87.5426L209.241 92.6066V92.5073L183.723 86.7483C183.623 87.0462 183.623 87.344 183.623 87.5426Z" fill="#1A2E35"/>
<path d="M214.702 90.9175C214.603 91.1161 213.809 93.2012 212.419 93.797C211.624 94.0949 210.731 93.9956 209.738 93.0026V92.2083C209.738 92.2083 210.631 91.2154 211.922 91.5132C212.022 91.5132 212.121 91.6125 212.319 91.6125C213.511 92.2083 214.603 91.1161 214.702 90.9175Z" fill="#1A2E35"/>
<path d="M214.704 90.9175C214.604 91.1161 213.81 93.2012 212.42 93.797C212.618 93.3005 212.817 92.7047 212.718 92.6055C212.519 92.5062 211.923 92.5062 211.626 92.4069C211.328 92.3076 212.023 91.5132 211.923 91.5132C212.023 91.5132 212.122 91.6125 212.321 91.6125C213.512 92.2083 214.604 91.1161 214.704 90.9175Z" fill="#FD9106"/>
<g opacity="0.2">
<path opacity="0.2" d="M214.704 90.9175C214.604 91.1161 213.81 93.2012 212.42 93.797C212.618 93.3005 212.817 92.7047 212.718 92.6055C212.519 92.5062 211.923 92.5062 211.626 92.4069C211.328 92.3076 212.023 91.5132 211.923 91.5132C212.023 91.5132 212.122 91.6125 212.321 91.6125C213.512 92.2083 214.604 91.1161 214.704 90.9175Z" fill="#1A2E35"/>
</g>
<path d="M184.819 96.7763C184.819 96.7763 189.486 96.3791 190.379 93.4996C190.677 92.5067 191.67 91.613 191.67 91.613C191.67 91.613 195.94 92.1095 195.94 90.3222L190.379 88.9321C190.379 88.9321 187.103 89.4286 184.819 92.3081" fill="white"/>
<path d="M184.817 97.074C184.619 97.074 184.52 96.9747 184.52 96.7761C184.52 96.5776 184.619 96.4783 184.817 96.379C184.817 96.379 189.286 95.9818 190.08 93.3009C190.378 92.308 191.371 91.315 191.47 91.2157C191.569 91.1165 191.669 91.1164 191.768 91.1164C192.562 91.2157 194.747 91.315 195.442 90.62C195.541 90.5207 195.541 90.4214 195.64 90.4214L190.477 89.1306C189.981 89.2299 187.2 89.9249 185.215 92.4073C185.115 92.5065 184.917 92.6058 184.718 92.4073C184.619 92.308 184.52 92.1094 184.718 91.9108C187.101 89.0313 190.378 88.4355 190.477 88.4355H190.576L196.137 89.8256C196.236 89.8256 196.335 90.0242 196.335 90.1235C196.335 90.5207 196.137 90.8186 195.938 91.1164C194.945 92.0101 192.562 91.8115 191.867 91.8115C191.569 92.1094 190.974 92.8044 190.775 93.4995C189.782 96.6768 185.016 97.074 184.817 97.074Z" fill="#1A2E35"/>
<path d="M192.859 97.0744C192.76 97.0744 192.661 96.9751 192.561 96.8758C192.561 96.7765 192.363 96.3793 192.462 95.6843C191.965 95.4857 191.469 94.9892 191.568 94.1949C191.27 94.0956 190.973 93.7977 190.774 93.3013C190.575 92.7055 190.774 92.0105 191.37 91.2161C191.469 91.1168 191.668 91.0175 191.866 91.1168C191.965 91.2161 192.065 91.4147 191.965 91.6133C191.469 92.209 191.37 92.7055 191.469 93.0034C191.568 93.4005 192.065 93.5991 192.065 93.5991C192.263 93.6984 192.363 93.7977 192.263 93.9963C192.065 94.7906 192.859 95.0885 192.958 95.0885C193.157 95.1878 193.256 95.2871 193.157 95.4857C192.958 96.1807 193.157 96.4786 193.157 96.4786C193.256 96.6772 193.157 96.8758 192.958 96.8758C192.958 97.0744 192.859 97.0744 192.859 97.0744Z" fill="#1A2E35"/>
<path d="M191.965 94.3933C191.866 94.3933 191.767 94.294 191.668 94.1947C191.568 93.9961 191.668 93.7975 191.767 93.7975C192.76 93.3011 194.547 92.2088 194.845 91.7124C194.944 91.5138 195.143 91.5138 195.242 91.6131C195.441 91.7124 195.441 91.9109 195.341 92.0102C194.944 92.8046 192.462 94.0954 192.065 94.3933H191.965Z" fill="#1A2E35"/>
<path d="M192.86 95.8827C192.76 95.8827 192.562 95.7834 192.562 95.6842C192.463 95.4856 192.562 95.287 192.76 95.287C194.051 94.7905 195.541 93.8969 195.64 93.4004C195.64 93.2018 195.839 93.1025 196.037 93.1025C196.236 93.1025 196.335 93.3011 196.335 93.4997C196.136 94.5919 193.555 95.6842 193.058 95.8827C192.86 95.8827 192.86 95.8827 192.86 95.8827Z" fill="#1A2E35"/>
<path d="M195.339 89.4285H195.24C193.751 88.8327 193.254 87.3434 193.254 87.3434C193.155 87.1448 193.254 86.9462 193.453 86.9462C193.651 86.8469 193.85 86.9462 193.85 87.1448C193.85 87.1448 194.247 88.4356 195.438 88.8327C195.637 88.932 195.736 89.1306 195.637 89.2299C195.538 89.3292 195.438 89.4285 195.339 89.4285Z" fill="#1A2E35"/>
<path d="M192.46 88.7337C192.361 88.7337 192.262 88.6344 192.162 88.5352C192.063 88.3366 192.162 88.138 192.262 88.0387C192.957 87.6415 193.652 87.3436 193.652 87.3436C193.85 87.2443 194.049 87.3436 194.049 87.5422C194.148 87.7408 194.049 87.9394 193.85 87.9394C193.85 87.9394 193.155 88.138 192.56 88.5352C192.56 88.7337 192.56 88.7337 192.46 88.7337Z" fill="#1A2E35"/>
<path d="M37.1661 82.7753C34.4852 77.8107 35.776 64.009 47.7904 62.2217C64.273 59.7394 57.819 71.9524 68.4433 74.3354C79.0677 76.6192 76.5853 91.3145 62.1879 93.1018C51.0671 94.4919 41.7336 91.1159 37.1661 82.7753Z" fill="#757575"/>
<path d="M57.3234 93.6978C47.9899 93.6978 40.6422 89.9247 36.8691 82.8749C35.2804 79.8961 35.0818 74.0378 37.4648 69.1725C38.8549 66.293 41.8337 62.6192 47.692 61.8248C57.522 60.3354 59.5078 64.1086 61.3944 67.6831C62.7845 70.2647 64.1746 72.9456 68.5435 73.8393C72.9124 74.8322 75.494 77.9103 75.3947 81.882C75.1961 86.5487 71.0258 92.1091 62.288 93.2014C60.6 93.5985 58.9121 93.6978 57.3234 93.6978ZM37.4648 82.6763C41.7344 90.6197 50.7701 94.2936 62.1887 92.8042C70.5293 91.712 74.501 86.4494 74.6996 82.0806C74.8982 78.4067 72.4159 75.5272 68.4442 74.6336C63.7774 73.6407 62.288 70.8605 60.8979 68.0803C59.0114 64.5057 57.2241 61.1298 47.8906 62.5199C42.2309 63.4135 39.4507 66.7895 38.0606 69.5697C35.7769 74.1371 35.9754 79.7968 37.4648 82.6763Z" fill="#1A2E35"/>
<path d="M66.4596 76.9183C66.4596 76.9183 65.1688 75.4289 64.1759 75.2304C63.183 75.0318 60.0056 76.0247 60.0056 76.0247C60.0056 76.0247 60.1049 77.5141 62.1901 77.6134C64.2752 77.7127 63.183 78.7056 63.183 78.7056C63.183 78.7056 66.0625 80.0957 66.4596 76.9183Z" fill="white"/>
<path d="M64.4714 79.3012C63.677 79.3012 63.0813 79.0033 63.0813 79.0033C62.982 79.0033 62.8827 78.904 62.8827 78.8047C62.8827 78.7054 62.8827 78.6061 62.982 78.5068C63.0813 78.4076 63.1806 78.209 63.1806 78.209C63.1806 78.209 63.0813 78.0104 62.1876 78.0104C59.9039 77.9111 59.7053 76.1238 59.7053 76.1238C59.7053 75.9252 59.8046 75.8259 59.9039 75.8259C60.2018 75.7267 63.0813 74.7337 64.1735 75.0316C65.2657 75.3295 66.6558 76.8189 66.6558 76.8189C66.7551 76.9182 66.7551 77.0175 66.7551 77.1167C66.6558 78.1097 66.1593 78.904 65.5636 79.2019C65.2657 79.3012 64.8685 79.3012 64.4714 79.3012ZM63.7763 78.6061C64.1735 78.7054 64.7692 78.8047 65.2657 78.6061C65.6629 78.4076 65.9608 77.9111 66.1594 77.1167C65.7622 76.6203 64.7692 75.7267 64.0742 75.6274C63.3791 75.4288 61.3933 76.0245 60.4004 76.3224C60.4997 76.7196 60.9961 77.3153 62.1876 77.4146C63.0813 77.4146 63.5777 77.6132 63.7763 78.0104C63.8756 78.209 63.7763 78.4076 63.7763 78.6061Z" fill="#1A2E35"/>
<path d="M55.5368 65.5987C54.246 62.9178 51.3665 63.7121 50.2743 64.705C48.1891 66.5916 49.2814 68.3789 50.2743 67.8824C51.2672 67.386 56.8276 68.2796 55.5368 65.5987Z" fill="#FD9106"/>
<path d="M42.8284 74.6352C43.027 74.7345 43.3249 74.9331 43.5234 74.9331C44.6157 75.231 45.8072 74.5359 46.0058 73.4437C46.0058 73.2451 46.0058 73.0465 46.1051 72.9472C46.2044 72.6493 46.4029 72.4508 46.6015 72.1529C46.8001 71.855 46.8001 71.5571 46.7008 71.2592C46.4029 70.8621 45.7079 71.0607 45.2114 70.7628C44.9135 70.5642 44.8143 70.0677 44.6157 69.7699C44.2185 69.2734 43.5234 69.2734 42.9277 69.3727C42.7291 69.3727 42.4312 69.472 42.4312 69.6706C42.4312 69.7699 42.4312 69.8691 42.4312 69.9684C42.4312 70.167 42.0341 70.2663 41.8355 70.2663C40.8425 70.4649 40.3461 71.6564 40.644 72.5501C40.644 73.543 42.0341 74.1387 42.8284 74.6352Z" fill="#FD9106"/>
<path d="M46.8976 81.8826C46.5998 81.3861 46.6991 80.5918 46.4012 80.0953C46.004 79.4003 45.1104 79.2017 44.316 79.1024C43.3231 79.0031 42.3302 78.9038 41.3373 78.9038C41.238 78.9038 41.238 78.9038 41.1387 78.9038C41.0394 79.0031 41.0394 79.1024 41.0394 79.2017C41.0394 79.6981 40.7415 80.0953 40.6422 80.5918C40.245 81.684 41.5358 83.0741 42.2309 83.7692C42.7273 84.2656 43.4224 84.7621 44.2167 84.8614C45.309 84.9607 46.3019 84.3649 47.1955 83.8684C47.2948 83.7692 47.4934 83.6699 47.5927 83.5706C47.7913 83.2727 47.692 82.9748 47.4934 82.6769C47.3941 82.3791 47.0962 82.1805 46.8976 81.8826Z" fill="#FD9106"/>
<path d="M54.2479 84.7622C53.3543 84.3651 52.3613 84.6629 51.4677 84.9608C51.2691 85.0601 50.9712 85.1594 50.8719 85.358C50.6733 85.6559 50.9712 85.9537 50.9712 86.2516C50.9712 86.7481 50.7726 86.6488 50.5741 87.046C50.2762 87.741 50.7726 88.2375 51.2691 88.4361C52.5599 89.0318 53.95 90.3226 55.3401 89.1311C55.8366 88.7339 56.0352 87.9396 56.0352 87.3438C55.9359 86.6488 55.638 86.053 55.2408 85.5566C54.8436 85.2587 54.5458 84.9608 54.2479 84.7622Z" fill="#FD9106"/>
<path d="M67.5523 85.5562C67.453 85.4569 67.453 85.3576 67.3537 85.2583C67.2544 85.159 67.1551 85.159 66.9565 85.159C66.2615 85.159 65.5664 85.2583 64.9707 85.0597C64.5735 84.9604 64.2756 84.7619 63.8784 84.5633C63.4813 84.464 63.0841 84.3647 62.7862 84.464C62.0912 84.7619 62.389 85.159 62.4883 85.6555C62.4883 86.3505 61.8926 86.847 61.8926 87.6413C61.8926 88.2371 62.4883 88.7336 62.9848 88.9322C63.5806 89.1307 64.1763 89.0314 64.7721 88.9322C65.1692 88.8329 65.6657 88.8329 66.0629 88.6343C66.3607 88.535 66.5593 88.2371 66.7579 88.0385C67.0558 87.7406 67.3537 87.3435 67.5523 86.9463C67.7508 86.5491 67.7508 86.0527 67.5523 85.5562Z" fill="#FD9106"/>
<path d="M218.477 112.663L216.193 125.571C216.093 125.868 215.796 126.166 215.498 126.166H208.547C208.249 126.166 208.051 125.868 208.051 125.571L211.427 106.208C211.526 106.407 211.824 106.904 211.923 107.102C213.611 109.783 215.696 111.471 218.477 112.663Z" fill="url(#paint0_linear)"/>
<path d="M234.86 102.038C234.761 102.237 234.761 102.436 234.761 102.535L233.172 111.769C230.789 112.663 228.207 113.06 225.626 113.06C222.846 113.06 220.165 112.464 217.98 111.273C216.789 110.677 215.796 109.883 214.902 108.989C214.009 107.996 213.313 107.003 212.618 105.812C212.221 105.017 211.923 104.124 212.023 103.23L212.122 102.535V102.436C212.42 101.443 212.916 100.45 213.81 99.7547C214.704 98.9603 215.796 98.4639 216.888 98.4639C217.98 98.4639 218.874 98.9603 219.47 99.854C221.654 102.932 223.64 104.719 226.917 104.719C229.697 104.719 232.378 103.826 234.86 102.038Z" fill="url(#paint1_linear)"/>
<path d="M243.896 102.535L239.825 125.472C239.726 125.769 239.428 126.067 239.13 126.067H232.18C231.882 126.067 231.683 125.769 231.683 125.472L235.754 102.535C235.853 101.84 236.151 101.244 236.548 100.648C237.442 99.3575 238.931 98.4639 240.52 98.4639C242.01 98.4639 243.102 99.2582 243.598 100.45C243.896 101.045 243.995 101.741 243.896 102.535Z" fill="url(#paint2_linear)"/>
<path d="M196.832 146.82H201.598L201.3 148.408L189.98 148.309L190.278 146.72H194.945L195.442 143.94H192.959C192.363 143.94 192.066 143.642 192.165 143.046L193.158 137.387H201.796L200.605 143.94H197.13L196.832 146.82ZM199.215 142.55L199.81 139.174H194.846L194.25 142.55H199.215Z" fill="url(#paint3_linear)"/>
<path d="M210.335 137.784C210.632 137.784 210.831 137.883 211.03 137.982C211.129 138.081 211.129 138.28 211.129 138.578L209.937 145.33H208.051L208.547 142.45H204.079L204.377 140.862H208.845L209.143 139.273H204.675L204.973 137.684L210.335 137.784ZM214.505 139.769H216.094L215.796 141.358H214.207L212.718 149.401H210.831L213.015 137.287H214.902L214.505 139.769Z" fill="url(#paint4_linear)"/>
<path d="M228.108 142.153L227.81 143.642L217.086 143.543L217.384 142.053H225.328L225.427 141.259H218.576L218.874 139.77H225.725L225.824 139.075H218.973L219.271 137.486H226.916C227.214 137.486 227.512 137.585 227.611 137.684C227.711 137.784 227.81 138.082 227.711 138.379L227.016 142.053L228.108 142.153ZM227.016 144.238L226.42 147.514H218.874L218.774 148.11H226.42L226.221 149.5H217.682C217.384 149.5 217.186 149.401 217.086 149.302C216.987 149.103 216.987 148.905 216.987 148.706L217.384 146.224H224.93L225.03 145.628H217.484L217.682 144.238H227.016Z" fill="url(#paint5_linear)"/>
<path d="M240.121 137.386H242.008L239.824 149.5H237.937L239.327 141.755H238.433L237.043 149.5H235.256L235.951 145.528H230.788C230.49 145.528 230.291 145.429 230.093 145.33C229.994 145.131 229.894 144.932 229.994 144.635L230.689 140.861H233.767L234.065 139.471H230.986L231.284 137.883H236.15L235.355 142.45H232.277L231.979 143.94H236.249L237.44 137.386H239.228L238.731 140.166H239.625L240.121 137.386Z" fill="url(#paint6_linear)"/>
<path d="M244.591 145.131L243.399 143.94L249.456 137.784C249.655 137.585 249.853 137.486 250.052 137.486C250.251 137.486 250.35 137.585 250.549 137.784L254.322 144.039L252.634 145.231L249.556 139.968L244.591 145.131Z" fill="url(#paint7_linear)"/>
<path d="M254.818 146.323H253.329C253.23 146.621 253.13 146.82 252.932 146.919C252.733 147.118 252.535 147.118 252.336 147.217H242.705L242.407 148.806H244.79H251.84H252.038C252.733 148.806 253.329 148.508 253.925 148.011C254.421 147.415 254.719 147.018 254.818 146.323Z" fill="url(#paint8_linear)"/>
<defs>
<linearGradient id="paint0_linear" x1="209.855" y1="126.1" x2="214.668" y2="104.27" gradientUnits="userSpaceOnUse">
<stop stop-color="#E27425"/>
<stop offset="1" stop-color="#E78C29"/>
</linearGradient>
<linearGradient id="paint1_linear" x1="213.615" y1="100.609" x2="236.059" y2="114.41" gradientUnits="userSpaceOnUse">
<stop stop-color="#E27425"/>
<stop offset="1" stop-color="#E78C29"/>
</linearGradient>
<linearGradient id="paint2_linear" x1="236.92" y1="99.926" x2="243.228" y2="127.182" gradientUnits="userSpaceOnUse">
<stop stop-color="#E27425"/>
<stop offset="1" stop-color="#E78C29"/>
</linearGradient>
<linearGradient id="paint3_linear" x1="191.464" y1="149.046" x2="204.277" y2="135.224" gradientUnits="userSpaceOnUse">
<stop stop-color="#E27425"/>
<stop offset="1" stop-color="#E78C29"/>
</linearGradient>
<linearGradient id="paint4_linear" x1="204.179" y1="148.019" x2="216.209" y2="136.568" gradientUnits="userSpaceOnUse">
<stop stop-color="#E27425"/>
<stop offset="1" stop-color="#E78C29"/>
</linearGradient>
<linearGradient id="paint5_linear" x1="215.963" y1="150.411" x2="229.766" y2="135.982" gradientUnits="userSpaceOnUse">
<stop stop-color="#E27425"/>
<stop offset="1" stop-color="#E78C29"/>
</linearGradient>
<linearGradient id="paint6_linear" x1="230.088" y1="150.205" x2="242.046" y2="134.218" gradientUnits="userSpaceOnUse">
<stop stop-color="#E27425"/>
<stop offset="1" stop-color="#E78C29"/>
</linearGradient>
<linearGradient id="paint7_linear" x1="242.871" y1="149.829" x2="255.69" y2="136.966" gradientUnits="userSpaceOnUse">
<stop stop-color="#E27425"/>
<stop offset="1" stop-color="#E78C29"/>
</linearGradient>
<linearGradient id="paint8_linear" x1="244.394" y1="151.347" x2="257.214" y2="138.485" gradientUnits="userSpaceOnUse">
<stop stop-color="#E27425"/>
<stop offset="1" stop-color="#E78C29"/>
</linearGradient>
</defs>
</svg>
